<svg width="375" height="812" viewBox="0 0 375 812" fill="none" xmlns="http://www.w3.org/2000/svg">
<g clip-path="url(#clip0_22170_37597)">
<g clip-path="url(#clip1_22170_37597)">
<g filter="url(#filter0_d_22170_37597)">
<ellipse cx="182" cy="755" rx="325" ry="149" fill="url(#paint0_linear_22170_37597)"/>
</g>
<path d="M199.538 508.342C202.938 508.436 210.373 507.964 212.975 509.657C219.768 514.884 217.663 518.866 218.253 526.257C218.956 527.801 219.913 530.394 220.67 531.772C222.662 535.396 223.689 539.295 225.312 542.94C229.739 552.881 229.423 565.438 216.361 567.837C215.412 568.011 212.618 567.889 211.917 568.254L211.792 568.44C212.994 572.272 213.869 576.072 214.991 579.906C212.99 579.893 202.498 579.759 201.098 580.037C198.999 579.559 190.096 579.885 187.679 580.002C186.351 579.707 178.626 579.889 176.936 579.915C172.551 579.602 167.702 579.714 163.291 579.832C162.047 579.506 152.806 579.882 150.874 579.941C151.062 576.148 152.274 572.305 153.056 568.591C154.3 562.675 155.33 556.659 156.897 550.819C157.788 547.497 158.922 544.235 159.712 540.881C160.755 539.1 162.447 534.867 163.444 532.738C165.109 529.181 167.088 525.503 168.682 521.981C168.279 520.459 167.682 519.084 167.671 517.536C170.931 521.533 172.345 522.397 176.922 524.621C183.316 524.848 188.077 520.637 192.85 516.829C194.979 514.791 197.593 512.721 199.884 510.823C199.681 509.688 199.659 509.476 199.091 508.484L199.538 508.342Z" fill="#E85B33"/>
<path d="M199.538 508.342C202.938 508.436 210.373 507.964 212.975 509.657C219.768 514.884 217.663 518.866 218.253 526.257C218.956 527.801 219.913 530.394 220.67 531.772C222.662 535.396 223.689 539.295 225.312 542.94C229.739 552.881 229.423 565.438 216.361 567.837C215.412 568.011 212.618 567.889 211.917 568.254L211.792 568.44L211.659 567.941C211.955 567.644 212.24 567.336 212.514 567.018C214.629 564.592 214.607 563.014 214.408 560.013L214.136 559.589C212.707 559.304 201.488 559.033 200.378 559.738L199.538 560.861C197.785 559.548 197.704 559.102 197.61 557.003C197.747 554.271 197.852 551.537 197.923 548.803C192.723 547.306 179.013 530.303 176.922 524.621C183.316 524.848 188.077 520.637 192.85 516.829C194.979 514.791 197.593 512.721 199.884 510.823C199.681 509.688 199.659 509.476 199.091 508.484L199.538 508.342Z" fill="#E85B33"/>
<path d="M199.538 508.342C202.938 508.436 210.373 507.964 212.975 509.657C219.768 514.884 217.663 518.866 218.253 526.257C218.956 527.801 219.913 530.394 220.67 531.772C222.662 535.396 223.689 539.295 225.312 542.94C229.739 552.881 229.423 565.438 216.361 567.837C215.412 568.011 212.618 567.889 211.917 568.254L211.792 568.44L211.659 567.941C211.955 567.644 212.24 567.336 212.514 567.018C214.629 564.592 214.607 563.014 214.408 560.013L214.647 559.568C215.646 559.299 217.297 559.396 218.381 559.408C218.282 552.927 217.611 545.534 216.633 539.151C215.454 531.454 208.892 518.119 202.365 513.628C202.33 513.166 200.542 511.617 199.884 510.823C199.681 509.688 199.659 509.476 199.091 508.484L199.538 508.342Z" fill="#A83622"/>
<path d="M192.85 516.829C192.749 518.23 192.294 519.546 192.264 520.961C192.124 527.687 194.464 534.136 198.212 539.666C198.273 540.063 197.998 548.44 197.923 548.803C192.723 547.306 179.013 530.303 176.922 524.621C183.316 524.848 188.077 520.637 192.85 516.829Z" fill="#E85B33"/>
<path d="M199.884 510.823C200.542 511.617 202.33 513.166 202.365 513.628C197.515 517.765 198.434 522.558 198.547 528.398C198.51 530.442 198.841 538.448 198.212 539.666C194.464 534.136 192.124 527.687 192.264 520.961C192.294 519.546 192.749 518.23 192.85 516.829C194.979 514.791 197.593 512.721 199.884 510.823Z" fill="#5A342B"/>
<path d="M198.547 528.398C199.164 533.079 197.967 558.301 199.189 559.621C199.714 559.721 199.842 559.734 200.378 559.738L199.538 560.861C197.785 559.548 197.704 559.102 197.61 557.003C197.747 554.271 197.852 551.537 197.923 548.803C197.998 548.44 198.273 540.063 198.212 539.666C198.841 538.448 198.51 530.442 198.547 528.398Z" fill="#A83622"/>
<path d="M167.671 517.536C170.931 521.533 172.345 522.397 176.922 524.621C179.013 530.303 192.723 547.306 197.923 548.803C197.852 551.537 197.747 554.271 197.61 557.003C196.876 556.907 193.751 554.472 192.91 553.878C182.893 546.797 172.268 533.839 168.682 521.981C168.279 520.459 167.682 519.084 167.671 517.536Z" fill="#EDA245"/>
<path d="M200.378 559.738C201.488 559.033 212.707 559.304 214.136 559.589L214.408 560.013C214.607 563.014 214.629 564.592 212.514 567.018C212.24 567.336 211.955 567.644 211.659 567.941C210.256 568.72 209.165 569.098 207.541 569.25C204.498 569.533 204.373 566.398 202.626 564.955C200.828 565.385 198.482 566.008 198.767 563.133C198.862 562.176 198.913 561.638 199.538 560.861L200.378 559.738Z" fill="#FEC991"/>
<path d="M163.28 467.571C163.921 465.769 164.913 462.829 165.711 461.196C167.489 457.848 171.029 454.53 174.448 452.913C178.787 450.861 183.894 450.816 188.374 452.33C193.067 453.917 198.221 458.868 199.246 463.883C209.75 462.959 213.212 465.47 216.793 475.037C220.281 476.299 223.045 478.177 224.708 481.637C226.176 484.739 226.349 488.296 225.187 491.524C224.067 494.56 222.287 495.688 220.271 498.005C221.211 503.564 218.545 508.119 212.975 509.657C210.373 507.964 202.938 508.436 199.538 508.342L199.091 508.484C199.659 509.476 199.681 509.688 199.884 510.823C197.593 512.721 194.979 514.791 192.85 516.829C188.077 520.637 183.316 524.848 176.922 524.621C172.345 522.397 170.931 521.533 167.671 517.536C167.139 516.718 166.152 514.629 166.037 513.645L165.783 513.336C165.043 511.284 166.333 508.627 167.542 506.989C167.065 506.207 167.326 506.43 166.584 506.042C159.489 507.672 154.28 506.521 149.875 500.444C146.98 494.647 148.85 490.282 153.227 486.215C152.744 484.643 152.56 483.711 152.272 482.096C152.34 475.468 154.477 470.838 160.899 468.295L163.28 467.571Z" fill="#FEECCE"/>
<path d="M181.906 480.388C184.944 485.824 192.205 487.097 197.386 484.219C198.881 487.958 199.459 489.051 202.081 492.119C204.539 490.158 207.235 489.811 209.337 492.524C210.418 493.946 210.881 495.742 210.623 497.508C209.956 502.325 206.6 503.345 202.385 502.932C201.676 504.346 199.314 507.423 199.297 508.107L199.538 508.342L199.091 508.484C199.659 509.476 199.681 509.688 199.884 510.823C197.593 512.721 194.979 514.791 192.85 516.829C188.077 520.637 183.316 524.848 176.922 524.621C172.345 522.397 170.931 521.533 167.671 517.536C167.139 516.718 166.152 514.629 166.037 513.645L165.783 513.336C165.043 511.284 166.333 508.627 167.542 506.989C167.065 506.207 167.326 506.43 166.584 506.042C166.468 504.737 165.945 503.545 164.667 503.128L164.926 502.975C165.18 502.062 163.819 498.186 163.791 496.733C163.762 495.173 164.906 492.194 164.933 491.221L164.623 490.911C165.362 490.495 167.356 485.738 167.95 484.512C174.252 486.799 177.82 485.526 181.906 480.388Z" fill="#FEC991"/>
<path d="M167.542 506.989C170.445 510.744 176.086 513.232 180.738 513.728C187.961 514.497 193.434 512.744 199.091 508.484C199.659 509.476 199.681 509.688 199.884 510.823C197.593 512.721 194.979 514.791 192.85 516.829C188.077 520.637 183.316 524.848 176.922 524.621C172.345 522.397 170.931 521.533 167.671 517.536C167.139 516.718 166.152 514.629 166.037 513.645L165.783 513.336C165.043 511.284 166.333 508.627 167.542 506.989Z" fill="#17676B"/>
<path d="M188.661 492.144C191.959 492.899 192.409 496.611 189.521 497.911C188.278 497.903 187.064 497.082 187.019 495.723C186.961 493.984 187.505 493.35 188.661 492.144Z" fill="#4F312A"/>
<path d="M173.637 492.204C176.653 492.415 177.169 495.835 174.911 497.848C171.2 498.158 171.243 494.397 173.637 492.204Z" fill="#4F312A"/>
<path d="M186.291 502.41C186.51 502.453 186.473 502.494 186.692 502.698C186.659 503.126 186.618 503.233 186.33 503.578C185.266 504.86 183.735 505.669 182.075 505.829C179.899 506.056 178.56 505.148 176.97 503.845C176.655 503.454 176.66 503.481 176.618 502.985C177.478 502.375 179.259 504.21 181.603 504.549C183.323 504.151 184.744 503.26 186.291 502.41Z" fill="#4F312A"/>
<path d="M180.757 496.782L181.004 497.212C180.558 498.962 181.016 499.227 180.994 500.735L180.428 501.015C178.416 499.788 178.687 497.837 180.757 496.782Z" fill="#4F312A"/>
<path d="M164.667 503.128C163.741 503.081 162.688 503.055 161.82 502.739C160.338 502.206 159.134 501.1 158.482 499.67C156.601 495.564 159.274 488.736 164.623 490.911L164.933 491.221C164.906 492.194 163.762 495.173 163.791 496.733C163.819 498.186 165.18 502.062 164.926 502.975L164.667 503.128Z" fill="#FEC991"/>
<path d="M229.613 571.754C231.252 571.765 232.804 572.249 234.073 571.085C235.958 569.358 239.247 562.76 242.333 563.977C244.281 566.132 242.788 576.222 243.117 579.381C243.426 582.358 248.015 585.137 244.427 587.591C242.345 589.016 240.679 590.18 238.16 590.651C241.821 594.634 245.744 597.89 245.945 603.742C245.964 604.293 245.8 604.438 245.899 605.093L246.324 605.312C249.852 603.822 247.312 590.334 248.633 586.255C251.128 578.559 254.868 575.613 262.713 574.462C260.252 581.539 261.347 583.903 262.79 590.852C264.162 597.465 261.965 604.904 255.381 607.8C251.093 609.799 237.712 609.92 232.881 609.662L231.74 609.677C230.138 609.669 228.581 609.751 226.981 609.825C226.702 609.817 226.215 609.748 225.919 609.714C224.153 609.644 221.277 610.079 219.736 609.4C218.638 608.088 220.529 606.954 221.529 606.118C221.758 600.865 221.729 596.965 223.276 591.895C220.321 591.625 215.452 589.07 213.376 586.85C210.964 584.94 212.079 582.17 215.564 583.374C217.102 581.613 217.852 578.951 220.447 576.002C221.846 568.408 224.554 556.196 229.613 571.754Z" fill="#E85B33"/>
<path d="M231.74 609.677C233.565 606.118 234.395 607.836 233.9 603.124C233.78 601.983 236.185 599.532 237.42 599.271C236.871 600.848 235.038 601.809 234.761 603.693C234.614 604.699 235.528 606.632 235.134 607.037C234.025 608.18 233.579 607.973 232.881 609.662L231.74 609.677Z" fill="#4F312A"/>
<path d="M213.376 586.85C210.964 584.94 212.079 582.17 215.564 583.374C215.987 584.039 216.107 584.176 216.095 584.982C215.717 586.137 214.428 586.438 213.376 586.85Z" fill="#4F312A"/>
<path d="M227.942 599.132C228.174 601.867 227.358 606.945 226.981 609.825C226.702 609.817 226.215 609.748 225.919 609.714C226.403 607.031 227.199 601.418 227.942 599.132Z" fill="#4F312A"/>
<path d="M229.615 580.26C230.386 580.679 231.137 581.556 231.761 582.208C231.221 582.879 230.617 583.569 230.059 584.232C227.512 583.69 227.841 581.649 229.615 580.26Z" fill="#4F312A"/>
<path d="M222.099 579.989C223.058 580.742 223.441 580.961 223.596 582.138C223.166 583.014 223.288 582.761 222.378 583.342C221.49 583.077 221.277 582.758 221.055 581.936C221.176 581.035 221.53 580.704 222.099 579.989Z" fill="#4F312A"/>
<path d="M115.552 453.566C119.225 445.257 128.251 440.67 137.15 442.59C146.049 444.511 152.367 452.408 152.267 461.488C152.167 470.567 145.677 478.325 136.738 480.05C134.422 480.497 132.043 480.514 129.72 480.1C122.566 478.824 116.75 473.624 114.701 466.671C113.424 462.339 113.725 457.697 115.552 453.566Z" fill="#FEC991"/>
<path d="M131.049 449.704C137.428 448.546 143.537 452.778 144.677 459.144C145.817 465.51 141.554 471.588 135.166 472.703C128.809 473.813 122.749 469.586 121.615 463.25C120.48 456.914 124.699 450.856 131.049 449.704Z" fill="#FEECCE"/>
<path d="M129.812 519.354C130.894 519.823 131.681 519.838 133.194 520.559L133.737 521.093C134.614 520.272 135.314 519.765 136.527 519.567C136.83 519.583 137.468 519.634 137.738 519.613C138.126 519.925 139.099 520.698 139.353 521.063C141.169 523.679 141.365 528.85 140.774 531.872C139.611 533.324 138.499 534.279 136.588 534.451L136.366 536.008C136.59 538.128 136.397 542.388 136.391 544.752L136.382 590.909C136.387 594.72 136.85 606.036 135.768 609.181C134.178 609.784 131.804 610.288 130.429 609.02C129.456 607.375 129.822 583.472 129.823 579.673L129.773 534.062C127.528 533.039 126.097 532.498 125.107 530.011C124.318 528.032 124.409 525.11 125.341 523.201C126.437 520.958 127.592 520.205 129.812 519.354Z" fill="#53322B"/>
<path d="M129.812 519.354C130.894 519.823 131.681 519.838 133.194 520.559C129.823 524.669 128.918 526.442 134.254 529.412C133.318 532.1 132.773 533.397 129.773 534.062C127.528 533.039 126.097 532.498 125.107 530.011C124.318 528.032 124.409 525.11 125.341 523.201C126.437 520.958 127.592 520.205 129.812 519.354Z" fill="#FEC991"/>
<path d="M136.527 519.567C136.83 519.583 137.468 519.634 137.738 519.613C138.126 519.925 139.099 520.698 139.353 521.063C141.169 523.679 141.365 528.85 140.774 531.872C139.611 533.324 138.499 534.279 136.588 534.451C136.49 530.531 136.13 527.687 137.987 524.225C136.692 525.679 134.199 528.706 132.005 527.044C130.646 524.934 132.478 522.694 133.737 521.093C134.614 520.272 135.314 519.765 136.527 519.567Z" fill="#FEC991"/>
<path d="M163.291 579.832C167.702 579.714 172.551 579.602 176.936 579.915C176.867 582.002 176.641 586.214 176.86 588.135C177.469 588.445 178.259 588.81 178.337 589.5C178.794 593.556 178.999 606.283 178.158 609.583C175.219 609.88 154.838 609.937 152.655 609.379C152.307 608.924 152.322 608.634 152.444 608.053C153.596 602.619 155.646 599.639 161.194 598.126C161.171 596.215 160.803 590.529 161.884 588.833C161.973 588.693 162.692 588.289 162.892 588.179C163.335 587.288 163.244 581.274 163.291 579.832Z" fill="#EDA245"/>
<path d="M163.291 579.832C167.702 579.714 172.551 579.602 176.936 579.915C176.867 582.002 176.641 586.214 176.86 588.135C175.579 588.463 164.066 588.513 162.892 588.179C163.335 587.288 163.244 581.274 163.291 579.832Z" fill="#5A342B"/>
<path d="M165.783 513.336L166.037 513.645C166.152 514.629 167.139 516.718 167.671 517.536C167.682 519.084 168.279 520.459 168.682 521.981C167.088 525.503 165.109 529.181 163.444 532.738C162.447 534.867 160.755 539.1 159.712 540.881C159.636 539.37 159.694 538.261 159.774 536.762C152.103 538.795 148.041 539.605 139.951 539.43C138.093 538.924 138.273 537.272 136.366 536.008L136.588 534.451C138.499 534.279 139.611 533.324 140.774 531.872C141.365 528.85 141.169 523.679 139.353 521.063C139.099 520.698 138.126 519.925 137.738 519.613C141.017 519.331 144.342 519.648 147.667 519.415C155.111 518.895 159.507 516.905 165.783 513.336Z" fill="#E85B33"/>
<path d="M166.037 513.645C166.152 514.629 167.139 516.718 167.671 517.536C167.682 519.084 168.279 520.459 168.682 521.981C167.088 525.503 165.109 529.181 163.444 532.738C162.447 534.867 160.755 539.1 159.712 540.881C159.636 539.37 159.694 538.261 159.774 536.762C160.4 531.566 161.991 525.537 163.47 520.499C164.082 518.413 165.538 515.715 166.037 513.645Z" fill="#5A342B"/>
<path d="M140.774 531.872C141.363 533.21 139.922 537.082 139.951 539.43C138.093 538.924 138.273 537.272 136.366 536.008L136.588 534.451C138.499 534.279 139.611 533.324 140.774 531.872Z" fill="#A83622"/>
<path d="M187.679 580.002C190.096 579.885 198.999 579.559 201.098 580.037C201.539 582.251 201.187 586.395 201.974 587.868C203.909 589.017 203.219 595.656 203.221 597.917C203.221 600.097 203.615 607.63 202.932 609.171C201.913 609.985 181.866 610.057 180.872 609.406C178.881 606.595 183.864 600.749 185.967 599.028C185.931 597.131 185.417 589.95 186.318 588.778C186.819 588.563 187.284 588.366 187.797 588.177C188.165 587.007 187.717 581.657 187.679 580.002Z" fill="#EDA245"/>
<path d="M187.679 580.002C190.096 579.885 198.999 579.559 201.098 580.037C201.539 582.251 201.187 586.395 201.974 587.868C199.96 588.94 192.262 588.192 189.613 588.365C189.283 588.387 188.127 588.3 187.797 588.177C188.165 587.007 187.717 581.657 187.679 580.002Z" fill="#5A342B"/>
<path d="M129.72 480.1C132.043 480.514 134.422 480.497 136.738 480.05C136.679 481.938 136.633 483.827 136.601 485.717C136.445 496.999 136.42 508.284 136.527 519.567C135.314 519.765 134.614 520.272 133.737 521.093L133.194 520.559C131.681 519.838 130.894 519.823 129.812 519.354C129.598 516.92 129.869 511.754 129.843 509.109C129.771 501.911 129.878 494.633 129.643 487.437C129.78 485.779 129.696 481.957 129.72 480.1Z" fill="#53322B"/>
<path d="M114.701 466.671C113.584 465.592 113.528 463.397 113.279 461.764L113.336 463.623C112.605 461.453 112.715 460.142 113.265 457.965L113.324 459.577C113.583 458.095 114.299 454.354 115.552 453.566C113.725 457.697 113.424 462.339 114.701 466.671Z" fill="#FEECCE" fill-opacity="0.223529"/>
</g>
</g>
<defs>
<filter id="filter0_d_22170_37597" x="-151" y="598" width="666" height="314" filterUnits="userSpaceOnUse" color-interpolation-filters="sRGB">
<feFlood flood-opacity="0" result="BackgroundImageFix"/>
<feColorMatrix in="SourceAlpha" type="matrix" values="0 0 0 0 0 0 0 0 0 0 0 0 0 0 0 0 0 0 127 0" result="hardAlpha"/>
<feOffset/>
<feGaussianBlur stdDeviation="4"/>
<feComposite in2="hardAlpha" operator="out"/>
<feColorMatrix type="matrix" values="0 0 0 0 0 0 0 0 0 0 0 0 0 0 0 0 0 0 0.4 0"/>
<feBlend mode="normal" in2="BackgroundImageFix" result="effect1_dropShadow_22170_37597"/>
<feBlend mode="normal" in="SourceGraphic" in2="effect1_dropShadow_22170_37597" result="shape"/>
</filter>
<linearGradient id="paint0_linear_22170_37597" x1="182" y1="606" x2="182" y2="856.98" gradientUnits="userSpaceOnUse">
<stop stop-color="#0F2321"/>
<stop offset="0.649038" stop-color="#3F5654"/>
</linearGradient>
<clipPath id="clip0_22170_37597">
<rect width="375" height="812" fill="white"/>
</clipPath>
<clipPath id="clip1_22170_37597">
<rect width="375" height="812" fill="white"/>
</clipPath>
</defs>
</svg>
