<svg width="24" height="24" viewBox="0 0 24 24" fill="none" xmlns="http://www.w3.org/2000/svg">
<path d="M5.29289 2.29289C5.68342 1.90237 6.31643 1.90237 6.70696 2.29289C7.09748 2.68342 7.09748 3.31643 6.70696 3.70696L3.70696 6.70696C3.31643 7.09748 2.68342 7.09748 2.29289 6.70696C1.90237 6.31643 1.90237 5.68342 2.29289 5.29289L5.29289 2.29289Z" fill="#F6F7F7"/>
<path d="M11.9999 3.99992C16.9705 3.99992 20.9999 8.02936 20.9999 12.9999C20.9999 17.9705 16.9705 21.9999 11.9999 21.9999C7.02936 21.9999 2.99992 17.9705 2.99992 12.9999C2.99992 8.02936 7.02936 3.99992 11.9999 3.99992ZM11.9999 6.99992C11.4476 6.99992 10.9999 7.44764 10.9999 7.99992V13.4999L15.4003 16.7997L15.4853 16.8573C15.9194 17.1186 16.4892 17.0136 16.7997 16.5995C17.1102 16.1854 17.0512 15.609 16.6786 15.2655L16.5995 15.2001L12.9999 12.4999V7.99992C12.9999 7.44764 12.5522 6.99992 11.9999 6.99992Z" fill="#F6F7F7"/>
<path d="M18.707 2.29289C18.3164 1.90237 17.6834 1.90237 17.2929 2.29289C16.9024 2.68342 16.9024 3.31643 17.2929 3.70696L20.2929 6.70696C20.6834 7.09748 21.3164 7.09748 21.707 6.70696C22.0975 6.31643 22.0975 5.68342 21.707 5.29289L18.707 2.29289Z" fill="#F6F7F7"/>
</svg>
