<svg width="24" height="24" viewBox="0 0 24 24" fill="none" xmlns="http://www.w3.org/2000/svg">
<path d="M5.29289 2.29289C5.68342 1.90237 6.31643 1.90237 6.70696 2.29289C7.09748 2.68342 7.09748 3.31643 6.70696 3.70696L3.70696 6.70696C3.31643 7.09748 2.68342 7.09748 2.29289 6.70696C1.90237 6.31643 1.90237 5.68342 2.29289 5.29289L5.29289 2.29289Z" fill="#F6F7F7"/>
<path d="M11.9999 3.99992C16.9705 3.99992 20.9999 8.02936 20.9999 12.9999C20.9999 17.9705 16.9705 21.9999 11.9999 21.9999C7.02936 21.9999 2.99992 17.9705 2.99992 12.9999C2.99992 8.02936 7.02936 3.99992 11.9999 3.99992ZM11.9999 5.99992C8.13393 5.99992 4.99992 9.13393 4.99992 12.9999C4.99992 16.8659 8.13393 19.9999 11.9999 19.9999C15.8659 19.9999 18.9999 16.8659 18.9999 12.9999C18.9999 9.13393 15.8659 5.99992 11.9999 5.99992Z" fill="#F6F7F7"/>
<path d="M10.9999 8.99992C10.9999 8.44764 11.4476 7.99992 11.9999 7.99992C12.5522 7.99992 12.9999 8.44764 12.9999 8.99992V12.9208L15.6581 15.247C16.0736 15.6106 16.1162 16.2425 15.7529 16.6581C15.412 17.0477 14.835 17.1097 14.4218 16.8163L14.3417 16.7529L10.9999 13.829V8.99992Z" fill="#F6F7F7"/>
<path d="M18.707 2.29289C18.3164 1.90237 17.6834 1.90237 17.2929 2.29289C16.9024 2.68342 16.9024 3.31643 17.2929 3.70696L20.2929 6.70696C20.6834 7.09748 21.3164 7.09748 21.707 6.70696C22.0975 6.31643 22.0975 5.68342 21.707 5.29289L18.707 2.29289Z" fill="#F6F7F7"/>
</svg>
