<svg width="24" height="24" viewBox="0 0 24 24" fill="none" xmlns="http://www.w3.org/2000/svg">
<path d="M6.68601 5.43394C6.69617 5.30447 6.70848 5.18404 6.72318 5.07207C5.66062 5.42632 5.6477 6.51919 5.57361 7.4082C5.53773 7.8388 5.4349 9.13509 5.31292 10.6736C5.30854 10.7288 5.30414 10.7843 5.29972 10.84C5.1191 13.1182 4.90107 15.8683 4.79593 17.1299C4.74938 17.6885 4.74911 18.1747 4.81183 18.5884C4.99092 19.7698 5.68359 20.3605 7.27871 20.3605H11.4963H12.4836H16.7012C18.296 20.3605 18.9887 19.7701 19.168 18.5892C19.2308 18.1753 19.2306 17.6889 19.184 17.1299C19.0788 15.8684 18.8609 13.1188 18.6802 10.8408C18.6757 10.7834 18.6712 10.7263 18.6667 10.6695C18.5448 9.13281 18.4421 7.83842 18.4063 7.4082C18.3318 6.51377 18.3191 5.41299 17.2372 5.06567C17.2523 5.17946 17.2648 5.302 17.2752 5.43394C17.3948 6.9595 17.7538 8.5748 16.318 9.20298C15.5908 9.52112 14.7562 9.8853 13.9735 10.1673C13.9957 10.8828 13.9998 11.2071 13.3349 11.2071H12.2281H11.7794H10.6725C10.0128 11.2071 10.0117 10.8877 10.0335 10.1837C9.23763 9.89953 8.3846 9.52733 7.64323 9.20298C6.2074 8.5748 6.56636 6.9595 6.68601 5.43394Z" fill="#E3622C"/>
<path d="M5.29972 10.84L5.31292 10.6736C3.85733 10.9724 3.04657 13.1359 2.57751 14.8864C2.091 16.7021 1.70894 18.4623 4.81183 18.5884C4.74911 18.1747 4.74938 17.6885 4.79593 17.1299C4.90107 15.8683 5.1191 13.1182 5.29972 10.84Z" fill="#D44B22"/>
<path d="M19.184 17.1299C19.2306 17.6889 19.2308 18.1753 19.168 18.5892C22.2927 18.4699 21.9101 16.7061 21.4225 14.8864C20.9512 13.1277 20.1351 10.9522 18.6667 10.6695L18.6802 10.8408C18.8609 13.1188 19.0788 15.8684 19.184 17.1299Z" fill="#D44B22"/>
<path d="M10.6725 11.2071H11.7794H12.2281H13.3349C13.9998 11.2071 13.9957 10.8828 13.9735 10.1673L13.9729 10.1477C13.9683 9.99909 13.9631 9.83395 13.9631 9.65167C13.9631 9.20298 13.6041 9.14315 13.275 9.14315H12.2281H11.7794H10.7324C10.4034 9.14315 10.0444 9.20298 10.0444 9.65167C10.0444 9.84882 10.0384 10.0259 10.0335 10.1837C10.0117 10.8877 10.0128 11.2071 10.6725 11.2071Z" fill="#F0AD8E"/>
<path d="M11.9806 3.63916H8.33123C7.31838 3.63916 6.8817 3.86462 6.72318 5.07207C6.70848 5.18404 6.69617 5.30447 6.68601 5.43394C6.56636 6.9595 6.2074 8.5748 7.64323 9.20298C8.3846 9.52733 9.23763 9.89953 10.0335 10.1837C10.0384 10.0259 10.0444 9.84882 10.0444 9.65167C10.0444 9.20298 10.4034 9.14315 10.7324 9.14315H11.7794H12.2281H13.275C13.6041 9.14315 13.9631 9.20298 13.9631 9.65167C13.9631 9.83395 13.9683 9.99909 13.9729 10.1477L13.9735 10.1673C14.7562 9.8853 15.5908 9.52112 16.318 9.20298C17.7538 8.5748 17.3948 6.9595 17.2752 5.43394C17.2648 5.302 17.2523 5.17946 17.2372 5.06567C17.078 3.86382 16.641 3.63916 15.63 3.63916H11.9806Z" fill="#E8824F"/>
</svg>
