<svg width="24" height="24" viewBox="0 0 24 24" fill="none" xmlns="http://www.w3.org/2000/svg">
<path d="M18.022 17.169L18.0267 19.0772L18.0786 19.1291C18.8539 19.1008 19.0094 20.1551 18.2718 20.365L7.23178 20.3721C6.1973 20.2495 5.36782 19.431 5.25 18.3932V5.60921C5.37489 4.55724 6.20672 3.73407 7.26242 3.62793H18.1752C18.4297 3.63029 18.6276 3.8237 18.7266 4.0407L18.7431 16.6336C18.7078 16.9898 18.359 17.1997 18.0197 17.1667L18.022 17.169ZM8.75406 6.56683C8.10839 6.77203 8.12017 7.62823 8.78469 7.7957H15.1825C15.8776 7.66833 15.8965 6.73901 15.2155 6.55975L8.75406 6.56447V6.56683ZM16.7825 17.169H7.30012C6.86182 17.169 6.47772 17.7729 6.4895 18.1856C6.50128 18.5984 6.90895 19.1315 7.33547 19.1315H16.7825V17.1667V17.169Z" fill="#D44B22"/>
<path d="M8.75406 6.56683C8.10839 6.77203 8.12017 7.62823 8.78469 7.7957H15.1825C15.8776 7.66833 15.8965 6.73901 15.2155 6.55975L8.75406 6.56447V6.56683Z" fill="#F0AD8E"/>
<path d="M16.7825 17.169H7.30012C6.86182 17.169 6.47772 17.7729 6.4895 18.1856C6.50128 18.5984 6.90895 19.1315 7.33547 19.1315H16.7825V17.169Z" fill="#F5E2D4"/>
</svg>
