<svg width="24" height="24" viewBox="0 0 24 24" fill="none" xmlns="http://www.w3.org/2000/svg">
<path d="M4.29289 4.29289C4.68342 3.90237 5.31643 3.90237 5.70696 4.29289L19.707 18.2929L19.7753 18.3691C20.0957 18.7618 20.0731 19.3408 19.707 19.707C19.3408 20.0731 18.7618 20.0957 18.3691 19.7753L18.2929 19.707L4.29289 5.70696C3.90237 5.31643 3.90237 4.68342 4.29289 4.29289Z" fill="#F6F7F7"/>
<path d="M19.707 4.29289C20.0975 4.68342 20.0975 5.31643 19.707 5.70696L5.70695 19.707L5.63078 19.7753C5.23801 20.0957 4.65901 20.0731 4.29289 19.707C3.92678 19.3408 3.90418 18.7618 4.22453 18.3691L4.29289 18.2929L18.2929 4.29289C18.6834 3.90237 19.3164 3.90237 19.707 4.29289Z" fill="#F6F7F7"/>
</svg>
