<svg width="24" height="24" viewBox="0 0 24 24" fill="none" xmlns="http://www.w3.org/2000/svg">
<path d="M22 12C22 17.5228 17.5228 22 12 22C6.47715 22 2 17.5228 2 12C2 6.47715 6.47715 2 12 2C17.5228 2 22 6.47715 22 12Z" fill="#DB5639"/>
<path d="M15.293 7.29297C15.6835 6.90244 16.3165 6.90244 16.7071 7.29297C17.0974 7.68351 17.0975 8.31656 16.7071 8.70704L13.4141 12L16.7071 15.293L16.7754 15.3692C17.0956 15.7619 17.0731 16.341 16.7071 16.7071C16.341 17.0731 15.7619 17.0956 15.3692 16.7754L15.293 16.7071L12 13.4141L8.70704 16.7071L8.63087 16.7754C8.23814 17.0957 7.6591 17.073 7.29297 16.7071C6.92686 16.341 6.90427 15.7619 7.22461 15.3692L7.29297 15.293L10.5859 12L7.29297 8.70704C6.90244 8.31651 6.90244 7.6835 7.29297 7.29297C7.6835 6.90244 8.31651 6.90244 8.70704 7.29297L12 10.5859L15.293 7.29297Z" fill="#F6F7F7"/>
</svg>
