<svg width="24" height="24" viewBox="0 0 24 24" fill="none" xmlns="http://www.w3.org/2000/svg">
<path d="M13.0001 5C13.0001 4.44771 12.5524 4 12.0001 4C11.4478 4 11.0001 4.44771 11.0001 5L11.0001 19C11.0001 19.5523 11.4478 20 12.0001 20C12.5524 20 13.0001 19.5523 13.0001 19L13.0001 5Z" fill="#F6F7F7"/>
<path d="M19.7071 12.707C20.0976 12.3165 20.0976 11.6835 19.7071 11.293C19.3166 10.9024 18.6836 10.9024 18.293 11.293L11.293 18.293C10.9025 18.6835 10.9025 19.3165 11.293 19.707C11.6836 20.0976 12.3166 20.0976 12.7071 19.707L19.7071 12.707Z" fill="#F6F7F7"/>
<path d="M12.7071 18.293C13.0976 18.6835 13.0976 19.3165 12.7071 19.707C12.3166 20.0976 11.6836 20.0976 11.293 19.707L4.29304 12.707C3.90252 12.3165 3.90252 11.6835 4.29304 11.293C4.68357 10.9024 5.31658 10.9024 5.70711 11.293L12.7071 18.293Z" fill="#F6F7F7"/>
</svg>
