<svg width="24" height="24" viewBox="0 0 24 24" fill="none" xmlns="http://www.w3.org/2000/svg">
<path d="M22 12C22 6.4772 17.5228 2 12 2C6.4772 2 2 6.4772 2 12C2 16.6896 5.2288 20.6248 9.5844 21.7056V15.056H7.5224V12H9.5844V10.6832C9.5844 7.2796 11.1248 5.702 14.4664 5.702C15.1 5.702 16.1932 5.8264 16.6404 5.9504V8.7204C16.4044 8.6956 15.9944 8.6832 15.4852 8.6832C13.8456 8.6832 13.212 9.3044 13.212 10.9192V12H16.4784L15.9172 15.056H13.212V21.9268C18.1636 21.3288 22 17.1128 22 12Z" fill="#0866FF"/>
<path d="M15.9172 15.056L16.4784 12H13.212V10.9192C13.212 9.3044 13.8456 8.6832 15.4852 8.6832C15.9944 8.6832 16.4044 8.6956 16.6404 8.7204V5.9504C16.1932 5.8264 15.1 5.702 14.4664 5.702C11.1248 5.702 9.5844 7.2796 9.5844 10.6832V12H7.5224V15.056H9.5844V21.7056C10.358 21.8976 11.1668 22 11.9996 22C12.4096 22 12.814 21.9748 13.2112 21.9268V15.056H15.9172Z" fill="white"/>
</svg>
