<svg width="24" height="24" viewBox="0 0 24 24" fill="none" xmlns="http://www.w3.org/2000/svg">
<path fill-rule="evenodd" clip-rule="evenodd" d="M7.82733 4.5C7.82733 3.83696 8.09072 3.20107 8.55956 2.73223C9.0284 2.26339 9.66428 2 10.3273 2C10.9904 2 11.6263 2.26339 12.0951 2.73223C12.5639 3.20107 12.8273 3.83696 12.8273 4.5V9.105L18.2693 9.71C19.2475 9.81876 20.1513 10.2844 20.8078 11.0177C21.4642 11.7511 21.8272 12.7008 21.8273 13.685V14C21.8273 16.1217 20.9845 18.1566 19.4842 19.6569C17.9839 21.1571 15.9491 22 13.8273 22H13.1533C11.6677 22 10.2115 21.5862 8.94777 20.8052C7.68405 20.0242 6.66276 18.9067 5.99833 17.578L3.15633 11.894C2.79633 11.174 3.06333 10.211 3.90333 9.866C4.94633 9.439 5.93733 9.359 6.95833 9.878C7.25366 10.0293 7.54333 10.224 7.82733 10.462V4.5ZM10.3273 4C10.1947 4 10.0675 4.05268 9.97377 4.14645C9.88 4.24021 9.82733 4.36739 9.82733 4.5V13C9.82716 13.207 9.76275 13.4089 9.64297 13.5778C9.5232 13.7466 9.35396 13.8742 9.15862 13.9427C8.96328 14.0113 8.75147 14.0176 8.55242 13.9607C8.35336 13.9038 8.17688 13.7865 8.04733 13.625C7.12233 12.469 6.53033 11.905 6.05233 11.661C5.79731 11.5223 5.50065 11.4807 5.21733 11.544L7.78733 16.684C8.2857 17.6804 9.05166 18.5184 9.9994 19.1041C10.9471 19.6897 12.0392 20 13.1533 20H13.8273C15.4186 20 16.9447 19.3679 18.07 18.2426C19.1952 17.1174 19.8273 15.5913 19.8273 14V13.685C19.8274 13.1926 19.6458 12.7176 19.3173 12.3507C18.9889 11.9839 18.5367 11.7512 18.0473 11.697L12.6073 11.093C12.1179 11.0388 11.6657 10.8061 11.3373 10.4393C11.0089 10.0724 10.8273 9.59736 10.8273 9.105V4.5C10.8273 4.36739 10.7746 4.24021 10.6809 4.14645C10.5871 4.05268 10.4599 4 10.3273 4Z" fill="#F6F7F7"/>
</svg>
