<svg width="24" height="24" viewBox="0 0 24 24" fill="none" xmlns="http://www.w3.org/2000/svg">
<path fill-rule="evenodd" clip-rule="evenodd" d="M7.82733 4.5C7.82733 3.83696 8.09072 3.20107 8.55956 2.73223C9.0284 2.26339 9.66428 2 10.3273 2C10.9904 2 11.6263 2.26339 12.0951 2.73223C12.5639 3.20107 12.8273 3.83696 12.8273 4.5V9.105L18.2693 9.71C19.2475 9.81876 20.1513 10.2844 20.8078 11.0177C21.4642 11.7511 21.8272 12.7008 21.8273 13.685V14C21.8273 16.1217 20.9845 18.1566 19.4842 19.6569C17.9839 21.1571 15.9491 22 13.8273 22H13.1533C11.6677 22 10.2115 21.5862 8.94777 20.8052C7.68405 20.0242 6.66276 18.9067 5.99833 17.578L3.15633 11.894C2.79633 11.174 3.06333 10.211 3.90333 9.866C4.94633 9.439 5.93733 9.359 6.95833 9.878C7.25366 10.0293 7.54333 10.224 7.82733 10.462V4.5Z" fill="#F6F7F7"/>
</svg>
