<svg width="24" height="24" viewBox="0 0 24 24" fill="none" xmlns="http://www.w3.org/2000/svg">
<path d="M12.204 10.1818V14.0545H17.6957C17.4546 15.3 16.7309 16.3546 15.6456 17.0636L18.9573 19.5818C20.8868 17.8364 22 15.2728 22 12.2273C22 11.5183 21.9351 10.8364 21.8144 10.1819L12.204 10.1818Z" fill="#4285F4"/>
<path d="M6.48532 13.9033L5.7384 14.4637L3.09454 16.4818C4.77359 19.7454 8.21493 22 12.2038 22C14.9589 22 17.2689 21.1091 18.9573 19.5818L15.6456 17.0636C14.7365 17.6636 13.5767 18.0273 12.2038 18.0273C9.55074 18.0273 7.29661 16.2728 6.48949 13.9091L6.48532 13.9033Z" fill="#34A853"/>
<path d="M3.09455 7.51818C2.39885 8.86358 2 10.3818 2 11.9999C2 13.6181 2.39884 15.1364 3.09454 16.4818C3.09454 16.4908 6.48982 13.8999 6.48982 13.8999C6.28574 13.2999 6.16511 12.6636 6.16511 11.9998C6.16511 11.3361 6.28574 10.6998 6.48982 10.0998L3.09455 7.51818Z" fill="#FBBC05"/>
<path d="M12.204 5.98182C13.7068 5.98182 15.0426 6.49089 16.1094 7.47272L19.0315 4.60912C17.2597 2.99097 14.9592 2 12.204 2C8.21514 2 4.7736 4.24544 3.09455 7.51818L6.48982 10.0998C7.29683 7.73613 9.55095 5.98182 12.204 5.98182Z" fill="#EA4335"/>
</svg>
