<svg width="24" height="24" viewBox="0 0 24 24" fill="none" xmlns="http://www.w3.org/2000/svg">
<path d="M12 4.99991C16.6175 4.99993 20.5428 7.92231 21.999 11.9999C20.5428 16.0775 16.6174 18.9999 12 18.9999C7.38242 18.9999 3.45619 16.0777 2 11.9999C3.45618 7.92215 7.38242 4.99991 12 4.99991ZM12 6.99991C9.23858 6.99991 7 9.23849 7 11.9999C7 14.7613 9.23858 16.9999 12 16.9999C14.7614 16.9999 17 14.7613 17 11.9999C17 9.23849 14.7614 6.99991 12 6.99991ZM12 8.99991C13.6569 8.99991 15 10.3431 15 11.9999C15 13.6568 13.6569 14.9999 12 14.9999C10.3431 14.9999 9 13.6568 9 11.9999C9 10.3431 10.3431 8.99991 12 8.99991Z" fill="#F6F7F7"/>
<path d="M2.87109 4.01261C3.38256 3.42807 4.24736 3.33588 4.86719 3.77628L4.9873 3.87101L20.9873 17.871C21.6107 18.4165 21.6742 19.3638 21.1289 19.9872C20.6174 20.5718 19.7526 20.6639 19.1328 20.2235L19.0127 20.1288L3.0127 6.12882L2.90234 6.02238C2.38338 5.46659 2.35978 4.59725 2.87109 4.01261Z" fill="#15312F"/>
<path d="M3.24707 5.34171C3.58797 4.95212 4.16493 4.89016 4.57812 5.18351L4.6582 5.24699L20.6582 19.247C21.0737 19.6106 21.1163 20.2425 20.7529 20.6581C20.412 21.0477 19.8351 21.1097 19.4219 20.8163L19.3418 20.7528L3.3418 6.75284L3.26758 6.68156C2.92194 6.31107 2.90644 5.73136 3.24707 5.34171Z" fill="#F6F7F7"/>
</svg>
