<svg width="24" height="24" viewBox="0 0 24 24" fill="none" xmlns="http://www.w3.org/2000/svg">
<path d="M12.5127 3.26395C12.1156 2.9219 11.5336 2.91242 11.1264 3.23478L11.0875 3.26699L2.37472 10.8388C1.92072 11.2333 1.87251 11.9213 2.26705 12.3753C2.59077 12.7478 3.112 12.8471 3.53947 12.6528C3.633 12.6103 3.72205 12.5538 3.80355 12.483L10.9803 6.18158C11.2882 5.87368 11.9553 5.56579 12.6224 6.23289L19.7435 12.366C19.8098 12.4174 19.8803 12.4601 19.9537 12.4941C20.3841 12.6933 20.9111 12.5932 21.236 12.216C21.6163 11.7746 21.5802 11.1155 21.1633 10.7178L21.1217 10.6802L12.5127 3.26395Z" fill="#8F9C9B"/>
<path d="M7.74737 14.5461C6.5671 14.5461 6.10526 15.0592 6.10526 16.2395V21.4224H10.8776V16.2395C10.8776 15.3158 10.3132 14.5461 9.38947 14.5461H7.74737Z" fill="#ECEFEE"/>
<path d="M12.5711 16.0855V17.0605C12.5711 17.8303 13.2382 18.6 14.0592 18.6H14.8289H15.3421H16.1118C16.9329 18.6 17.6 17.8303 17.6 17.0605V16.0855C17.6 15.3158 16.9329 14.5461 16.1118 14.5461H15.3421H14.8289H14.0592C13.2382 14.5461 12.5711 15.3158 12.5711 16.0855Z" fill="#F6F7F7"/>
<path fill-rule="evenodd" clip-rule="evenodd" d="M3.53947 19.7803C3.53947 21.4224 4.87731 21.4224 5.59769 21.4224H6.10526V16.2395C6.10526 15.0592 6.5671 14.5461 7.74737 14.5461H9.38947C10.3132 14.5461 10.8776 15.3158 10.8776 16.2395V21.4224H18.3071C20.1595 21.4224 19.9537 19.8316 19.9537 19.4211V12.4941C19.8803 12.4601 19.8098 12.4174 19.7435 12.366L12.6224 6.23289C11.9553 5.56579 11.2882 5.87368 10.9803 6.18158L3.80355 12.483C3.72205 12.5538 3.633 12.6103 3.53947 12.6528V19.7803ZM12.5711 17.0605V16.0855C12.5711 15.3158 13.2382 14.5461 14.0592 14.5461H14.8289H15.3421H16.1118C16.9329 14.5461 17.6 15.3158 17.6 16.0855V17.0605C17.6 17.8303 16.9329 18.6 16.1118 18.6H15.3421H14.8289H14.0592C13.2382 18.6 12.5711 17.8303 12.5711 17.0605Z" fill="#C5CCCB"/>
</svg>
