<svg width="24" height="24" viewBox="0 0 24 24" fill="none" xmlns="http://www.w3.org/2000/svg">
<path d="M12.7627 3.05252C12.3656 2.71048 11.7836 2.70099 11.3764 3.02335L11.3375 3.05556L2.62472 10.6274C2.17072 11.0219 2.12251 11.7098 2.51705 12.1639C2.84077 12.5364 3.362 12.6357 3.78947 12.4414C3.883 12.3989 3.97205 12.3424 4.05355 12.2715L11.2303 5.97015C11.5382 5.66226 12.2053 5.35436 12.8724 6.02147L19.9935 12.1545C20.0598 12.206 20.1303 12.2487 20.2037 12.2827C20.6341 12.4819 21.1611 12.3818 21.486 12.0046C21.8663 11.5632 21.8302 10.9041 21.4133 10.5064L21.3717 10.4687L12.7627 3.05252Z" fill="#D44B22"/>
<path d="M7.99737 14.3346C6.8171 14.3346 6.35526 14.8478 6.35526 16.028V21.2109H11.1276V16.028C11.1276 15.1044 10.5632 14.3346 9.63947 14.3346H7.99737Z" fill="#F6CEB2"/>
<path d="M12.8211 15.8741V16.8491C12.8211 17.6188 13.4882 18.3886 14.3092 18.3886H15.0789H15.5921H16.3618C17.1829 18.3886 17.85 17.6188 17.85 16.8491V15.8741C17.85 15.1044 17.1829 14.3346 16.3618 14.3346H15.5921H15.0789H14.3092C13.4882 14.3346 12.8211 15.1044 12.8211 15.8741Z" fill="#F5E2D4"/>
<path fill-rule="evenodd" clip-rule="evenodd" d="M3.78947 19.5688C3.78947 21.2109 5.12731 21.2109 5.84769 21.2109H6.35526V16.028C6.35526 14.8478 6.8171 14.3346 7.99737 14.3346H9.63947C10.5632 14.3346 11.1276 15.1044 11.1276 16.028V21.2109H18.5571C20.4095 21.2109 20.2037 19.6202 20.2037 19.2096V12.2827C20.1303 12.2487 20.0598 12.206 19.9935 12.1545L12.8724 6.02147C12.2053 5.35436 11.5382 5.66226 11.2303 5.97015L4.05355 12.2715C3.97205 12.3424 3.883 12.3989 3.78947 12.4414V19.5688ZM12.8211 16.8491V15.8741C12.8211 15.1044 13.4882 14.3346 14.3092 14.3346H15.0789H15.5921H16.3618C17.1829 14.3346 17.85 15.1044 17.85 15.8741V16.8491C17.85 17.6188 17.1829 18.3886 16.3618 18.3886H15.5921H15.0789H14.3092C13.4882 18.3886 12.8211 17.6188 12.8211 16.8491Z" fill="#E8824F"/>
</svg>
