<svg width="24" height="24" viewBox="0 0 24 24" fill="none" xmlns="http://www.w3.org/2000/svg">
<path d="M18 8C19.1046 8 20 8.83147 20 9.85714V19.1429C20 20.1685 19.1046 21 18 21H6C4.89543 21 4 20.1685 4 19.1429V9.85714C4 8.83147 4.89543 8 6 8H18ZM12 10.7857C10.8954 10.7857 10 11.6172 10 12.6429C10 13.3298 10.4029 13.9275 11 14.2488V18.2143C11 18.7271 11.4477 19.1429 12 19.1429C12.5523 19.1429 13 18.7271 13 18.2143V14.2488C13.5971 13.9275 14 13.3298 14 12.6429C14 11.6172 13.1046 10.7857 12 10.7857Z" fill="#F6F7F7"/>
<path d="M15 7C15 5.34315 13.6569 4 12 4C10.3431 4 9 5.34315 9 7V8H15V7ZM17 10H7V7C7 4.23858 9.23858 2 12 2C14.7614 2 17 4.23858 17 7V10Z" fill="#F6F7F7"/>
</svg>
