<svg width="24" height="24" viewBox="0 0 24 24" fill="none" xmlns="http://www.w3.org/2000/svg">
<path d="M8 17C8 18.6569 6.65685 20 5 20C3.34315 20 2 18.6569 2 17C2 15.3432 3.34315 14 5 14C6.65685 14 8 15.3432 8 17Z" fill="#F6F7F7"/>
<path d="M7 17C7 15.8955 6.10457 15 5 15C3.89543 15 3 15.8955 3 17C3 18.1046 3.89543 19 5 19V20C3.34315 20 2 18.6569 2 17C2 15.3432 3.34315 14 5 14C6.65685 14 8 15.3432 8 17C8 18.6569 6.65685 20 5 20V19C6.10457 19 7 18.1046 7 17Z" fill="#F6F7F7"/>
<path d="M20 15C20 16.6569 18.6569 18 17 18C15.3431 18 14 16.6569 14 15C14 13.3432 15.3431 12 17 12C18.6569 12 20 13.3432 20 15Z" fill="#F6F7F7"/>
<path d="M19 15C19 13.8955 18.1046 13 17 13C15.8954 13 15 13.8955 15 15C15 16.1046 15.8954 17 17 17V18C15.3431 18 14 16.6569 14 15C14 13.3432 15.3431 12 17 12C18.6569 12 20 13.3432 20 15C20 16.6569 18.6569 18 17 18V17C18.1046 17 19 16.1046 19 15Z" fill="#F6F7F7"/>
<path d="M18 15V3.00003C18 2.44775 18.4477 2.00003 19 2.00003C19.5523 2.00003 20 2.44775 20 3.00003V15C20 15.5523 19.5523 16 19 16C18.4477 16 18 15.5523 18 15Z" fill="#F6F7F7"/>
<path d="M6 17L6 5.00003C6 4.44775 6.44772 4.00003 7 4.00003C7.55228 4.00003 8 4.44775 8 5.00003V17C8 17.5523 7.55229 18 7 18C6.44772 18 6 17.5523 6 17Z" fill="#F6F7F7"/>
<path d="M18.8359 2.0137C19.3806 1.9231 19.8955 2.2913 19.9863 2.83597C20.0769 3.38062 19.7087 3.89558 19.1641 3.98636L7.16406 5.98636C6.61941 6.07696 6.10445 5.70876 6.01367 5.16409C5.92307 4.61944 6.29127 4.10448 6.83594 4.0137L18.8359 2.0137Z" fill="#F6F7F7"/>
<path d="M18.8359 6.0137C19.3806 5.9231 19.8955 6.2913 19.9863 6.83597C20.0769 7.38062 19.7087 7.89558 19.1641 7.98636L7.16406 9.98636C6.61941 10.077 6.10445 9.70876 6.01367 9.16409C5.92307 8.61944 6.29127 8.10448 6.83594 8.0137L18.8359 6.0137Z" fill="#F6F7F7"/>
</svg>
