<svg width="24" height="24" viewBox="0 0 24 24" fill="none" xmlns="http://www.w3.org/2000/svg">
<path d="M9.35938 9.61914L8 9.84668V17C8 18.6569 6.65685 20 5 20C3.34315 20 2 18.6569 2 17C2.00002 15.3432 3.34316 14 5 14C5.351 14 5.68695 14.0631 6 14.1738V7.24805L9.35938 9.61914ZM19.4424 16.7363C18.8986 17.4999 18.0089 18 17 18C15.3431 18 14 16.6569 14 15C14 14.3594 14.2019 13.7666 14.5439 13.2793L19.4424 16.7363ZM19.0234 2.00098C19.0372 2.00128 19.0508 2.00206 19.0645 2.00293C19.0821 2.00406 19.0998 2.0048 19.1172 2.00684C19.1379 2.00927 19.1583 2.0129 19.1787 2.0166C19.1905 2.01873 19.2022 2.0209 19.2139 2.02344C19.229 2.02676 19.2439 2.03114 19.2588 2.03516C19.2782 2.04035 19.2975 2.04545 19.3164 2.05176C19.3273 2.05539 19.3379 2.05948 19.3486 2.06348C19.3685 2.07089 19.3879 2.07927 19.4072 2.08789C19.4161 2.09188 19.4248 2.09634 19.4336 2.10059C19.4524 2.10967 19.4711 2.1187 19.4893 2.12891C19.5001 2.13499 19.5109 2.14099 19.5215 2.14746C19.5398 2.15867 19.5577 2.17029 19.5752 2.18262C19.583 2.18809 19.59 2.1945 19.5977 2.2002C19.6146 2.21286 19.6314 2.22556 19.6475 2.23926C19.6564 2.24688 19.6651 2.25476 19.6738 2.2627C19.6891 2.27669 19.7043 2.29075 19.7188 2.30566C19.7282 2.31544 19.737 2.32577 19.7461 2.33594C19.7567 2.34784 19.7673 2.35967 19.7773 2.37207C19.7901 2.3878 19.8017 2.40436 19.8135 2.4209C19.8204 2.43061 19.8274 2.44023 19.834 2.4502C19.8464 2.46894 19.858 2.48815 19.8691 2.50781C19.8732 2.51505 19.8779 2.52195 19.8818 2.5293C19.8905 2.54557 19.8984 2.56226 19.9062 2.5791C19.914 2.59586 19.9218 2.61264 19.9287 2.62988C19.9337 2.64239 19.9379 2.6552 19.9424 2.66797C19.9482 2.68436 19.9531 2.70101 19.958 2.71777C19.9629 2.73453 19.9676 2.75139 19.9717 2.76855C19.9756 2.78504 19.9793 2.80157 19.9824 2.81836C19.9835 2.82425 19.9853 2.83001 19.9863 2.83594C19.9875 2.84303 19.9873 2.85034 19.9883 2.85742C19.9913 2.87875 19.9944 2.90014 19.9961 2.92188C19.9972 2.93591 19.9975 2.9499 19.998 2.96387C19.9985 2.97587 20 2.98789 20 3V13.457L18 12.0459V8.17969L13.5684 8.91797L11.2451 7.27734L18 6.15234V4.17969L8.98438 5.68164L6.67676 4.05273C6.69115 4.04783 6.70603 4.0443 6.7207 4.04004C6.73581 4.03566 6.75117 4.03202 6.7666 4.02832C6.78375 4.02422 6.80088 4.01981 6.81836 4.0166L18.8359 2.01367C18.8431 2.01248 18.8503 2.01177 18.8574 2.01074C18.8787 2.0077 18.9002 2.00461 18.9219 2.00293C18.9359 2.00182 18.9499 2.0015 18.9639 2.00098C18.9759 2.00055 18.9879 2 19 2C19.0078 2 19.0156 2.0008 19.0234 2.00098Z" fill="#F6F7F7"/>
<path d="M3.18262 4.42285C3.4812 3.99998 4.0488 3.87907 4.49023 4.12793L4.57715 4.18262L21.5771 16.1826L21.6572 16.2461C22.0397 16.5787 22.116 17.1541 21.8174 17.5771C21.5188 18 20.9512 18.1209 20.5098 17.8721L20.4229 17.8174L3.42285 5.81738L3.34277 5.75391C2.96029 5.42128 2.88401 4.84587 3.18262 4.42285Z" fill="#F6F7F7"/>
</svg>
