<svg width="24" height="24" viewBox="0 0 24 24" fill="none" xmlns="http://www.w3.org/2000/svg">
<path d="M16.0002 10C16.0002 7.8599 14.3197 6.11202 12.2062 6.00488L12.0001 6C9.79109 6.00033 8.00012 7.79126 8.00012 10V15.667L7.00109 17H17.0002L16.0002 15.667V10ZM18.0002 15L19.8 17.4004C20.2943 18.0596 19.8242 19 19.0002 19H5.00108C4.1774 18.9999 3.70663 18.0596 4.20029 17.4004L6.00011 15V10C6.00011 6.6865 8.6867 4.00034 12.0001 4C15.3139 4 18.0002 6.68629 18.0002 10V15Z" fill="#F6F7F7"/>
<path d="M14.0004 19C14.0004 19.2626 13.9487 19.5227 13.8482 19.7654C13.7477 20.008 13.6004 20.2285 13.4146 20.4142C13.2289 20.5999 13.0084 20.7472 12.7658 20.8478C12.5231 20.9483 12.2631 21 12.0004 21C11.7378 21 11.4777 20.9483 11.2351 20.8478C10.9924 20.7472 10.7719 20.5999 10.5862 20.4142C10.4005 20.2285 10.2532 20.008 10.1527 19.7654C10.0522 19.5227 10.0004 19.2626 10.0004 19H14.0004Z" fill="#F6F7F7"/>
<path d="M14.0004 5C14.0004 4.73736 13.9487 4.47728 13.8482 4.23463C13.7477 3.99198 13.6004 3.7715 13.4146 3.58579C13.2289 3.40007 13.0084 3.25275 12.7658 3.15224C12.5231 3.05173 12.2631 3 12.0004 3C11.7378 3 11.4777 3.05173 11.2351 3.15224C10.9924 3.25275 10.7719 3.40007 10.5862 3.58579C10.4005 3.7715 10.2532 3.99198 10.1527 4.23463C10.0522 4.47728 10.0004 4.73736 10.0004 5L14.0004 5Z" fill="#F6F7F7"/>
</svg>
