<svg width="24" height="24" viewBox="0 0 24 24" fill="none" xmlns="http://www.w3.org/2000/svg">
<path d="M12.0005 3C12.8579 3.00015 13.5874 3.54059 13.8716 4.29883C16.2685 5.08533 17.9995 7.34004 17.9995 10V15L19.8003 17.3994C20.2948 18.0586 19.8245 18.9999 19.0005 19H13.9995C13.9995 20.1046 13.1041 21 11.9995 21C10.8951 20.9998 9.99951 20.1044 9.99951 19H4.99951C4.1757 18.9998 3.70563 18.0596 4.19971 17.4004L5.99951 15V10C5.99951 7.33942 7.73161 5.08385 10.1294 4.29785C10.4139 3.54009 11.1433 3 12.0005 3Z" fill="#F6F7F7"/>
</svg>
