<svg width="24" height="24" viewBox="0 0 24 24" fill="none" xmlns="http://www.w3.org/2000/svg">
<path d="M5 10.9999C4.44771 10.9999 4 11.4476 4 11.9999C4 12.5522 4.44771 12.9999 5 12.9999L19 12.9999C19.5523 12.9999 20 12.5522 20 11.9999C20 11.4476 19.5523 10.9999 19 10.9999L5 10.9999Z" fill="#F6F7F7"/>
<path d="M12.707 4.29289C12.3165 3.90237 11.6835 3.90237 11.293 4.29289C10.9024 4.68342 10.9024 5.31643 11.293 5.70696L18.293 12.707C18.6835 13.0975 19.3165 13.0975 19.707 12.707C20.0976 12.3164 20.0976 11.6834 19.707 11.2929L12.707 4.29289Z" fill="#F6F7F7"/>
<path d="M18.293 11.2929C18.6835 10.9024 19.3165 10.9024 19.707 11.2929C20.0976 11.6834 20.0976 12.3164 19.707 12.707L12.707 19.707C12.3165 20.0975 11.6835 20.0975 11.293 19.707C10.9024 19.3164 10.9024 18.6834 11.293 18.2929L18.293 11.2929Z" fill="#F6F7F7"/>
</svg>
