<svg width="24" height="24" viewBox="0 0 24 24" fill="none" xmlns="http://www.w3.org/2000/svg">
<path d="M22 12C22 17.5228 17.5228 22 12 22C6.47715 22 2 17.5228 2 12C2 6.47715 6.47715 2 12 2C17.5228 2 22 6.47715 22 12Z" fill="#46A668"/>
<path d="M17.2471 7.3418C17.6107 6.92628 18.2426 6.88371 18.6582 7.24707C19.0737 7.61065 19.1163 8.24256 18.7529 8.6582L11.1221 17.3789L5.375 12.7812L5.29883 12.7129C4.93703 12.3579 4.89529 11.7793 5.21875 11.375C5.54225 10.9706 6.11622 10.884 6.54199 11.1592L6.625 11.2188L10.877 14.6201L17.2471 7.3418Z" fill="#F6F7F7"/>
</svg>
