<svg width="24" height="24" viewBox="0 0 24 24" fill="none" xmlns="http://www.w3.org/2000/svg">
<path d="M20 8C20 6.89543 19.1046 6 18 6H6C4.89543 6 4 6.89543 4 8V18H20V8ZM22 20H2V8C2 5.79086 3.79086 4 6 4H18C20.2091 4 22 5.79086 22 8V20Z" fill="#F6F7F7"/>
<path d="M9 11C9.55228 11 10 11.4477 10 12C10 12.5523 9.55228 13 9 13L3 13C2.44772 13 2 12.5523 2 12C2 11.4477 2.44772 11 3 11L9 11Z" fill="#F6F7F7"/>
<path d="M21 11C21.5523 11 22 11.4477 22 12C22 12.5523 21.5523 13 21 13H15C14.4477 13 14 12.5523 14 12C14 11.4477 14.4477 11 15 11H21Z" fill="#F6F7F7"/>
<path d="M16 9V13.667L13.333 16H10.667L8 13.667V9H16ZM10 12.7578L11.418 14H12.582L14 12.7578V11H10V12.7578Z" fill="#F6F7F7"/>
</svg>
