<svg width="24" height="24" viewBox="0 0 24 24" fill="none" xmlns="http://www.w3.org/2000/svg">
<path d="M2 5H22V19H2V5Z" fill="black"/>
<path fill-rule="evenodd" clip-rule="evenodd" d="M2 5V19H22V5H2Z" fill="#EF0000"/>
<path fill-rule="evenodd" clip-rule="evenodd" d="M2 5V19H22V5H2Z" fill="#EF0000"/>
<path fill-rule="evenodd" clip-rule="evenodd" d="M2 5V13.1667H13.25V5H2Z" fill="#2E42A5"/>
<path d="M8.60625 7.29922L9.98613 6.79727L9.44805 8.08535L10.9119 8.29434L9.75664 9.15859L10.9119 10.0229L9.44805 10.2328L9.98613 11.5199L8.60625 11.0189L8.38164 12.3842L7.45586 11.3061L6.53008 12.3842L6.30547 11.0189L4.92559 11.5199L5.46367 10.2328L3.9998 10.0229L5.15508 9.15859L3.9998 8.29434L5.46367 8.08535L4.92559 6.79727L6.30547 7.29922L6.53008 5.93301L7.45586 7.01211L8.38164 5.93301L8.60625 7.29922ZM7.45586 7.48965C6.46804 7.48973 5.667 8.23666 5.6668 9.15859C5.6668 10.0807 6.46791 10.8284 7.45586 10.8285C8.44388 10.8285 9.24492 10.0807 9.24492 9.15859C9.24472 8.23661 8.44375 7.48965 7.45586 7.48965ZM7.45586 7.82363C8.24615 7.82363 8.88729 8.42104 8.8875 9.15859C8.8875 9.89631 8.24627 10.4945 7.45586 10.4945C6.66552 10.4945 6.0252 9.89627 6.0252 9.15859C6.0254 8.42109 6.66564 7.82371 7.45586 7.82363Z" fill="#FEFFFF"/>
</svg>
