<svg width="24" height="24" viewBox="0 0 24 24" fill="none" xmlns="http://www.w3.org/2000/svg">
<path d="M5 16C5 16.5523 4.55229 17 4 17C3.44772 17 3 16.5523 3 16L3 8C3 7.44772 3.44772 7 4 7C4.55228 7 5 7.44772 5 8L5 16Z" fill="#F6F7F7"/>
<path d="M9 21C9 21.5523 8.55228 22 8 22C7.44771 22 7 21.5523 7 21L7 3C7 2.44772 7.44772 2 8 2C8.55228 2 9 2.44772 9 3L9 21Z" fill="#F6F7F7"/>
<path d="M13 16C13 16.5523 12.5523 17 12 17C11.4477 17 11 16.5523 11 16L11 8C11 7.44772 11.4477 7 12 7C12.5523 7 13 7.44772 13 8L13 16Z" fill="#F6F7F7"/>
<path d="M17 19C17 19.5523 16.5523 20 16 20C15.4477 20 15 19.5523 15 19L15 5C15 4.44772 15.4477 4 16 4C16.5523 4 17 4.44772 17 5L17 19Z" fill="#F6F7F7"/>
<path d="M21 16C21 16.5523 20.5523 17 20 17C19.4477 17 19 16.5523 19 16V8C19 7.44772 19.4477 7 20 7C20.5523 7 21 7.44772 21 8V16Z" fill="#F6F7F7"/>
</svg>
