<svg width="375" height="22" viewBox="0 0 375 22" fill="none" xmlns="http://www.w3.org/2000/svg">
<path d="M55.0166 4.72314C55.6585 4.72314 56.2673 4.84212 56.8428 5.08008C57.4183 5.3125 57.9274 5.67773 58.3701 6.17578C58.8184 6.66829 59.1698 7.30192 59.4243 8.07666C59.6789 8.84587 59.8062 9.77279 59.8062 10.8574V10.874C59.8062 12.2188 59.6125 13.3698 59.2251 14.3271C58.8377 15.2845 58.2816 16.0205 57.5566 16.5352C56.8372 17.0443 55.9767 17.2988 54.9751 17.2988C54.2391 17.2988 53.575 17.166 52.9829 16.9004C52.3963 16.6292 51.9093 16.2585 51.522 15.7881C51.1401 15.3122 50.8828 14.7699 50.75 14.1611L50.7334 14.0698H52.8335L52.8667 14.1528C52.9718 14.4295 53.1213 14.673 53.3149 14.8833C53.5142 15.0936 53.7521 15.2568 54.0288 15.373C54.311 15.4837 54.6265 15.5391 54.9751 15.5391C55.606 15.5391 56.1206 15.3537 56.519 14.9829C56.923 14.6066 57.2246 14.1058 57.4238 13.4805C57.6286 12.8496 57.7448 12.1523 57.7725 11.3887C57.778 11.3057 57.7808 11.2254 57.7808 11.1479C57.7808 11.0649 57.7808 10.9847 57.7808 10.9072L57.4072 8.90674C57.4072 8.45296 57.3021 8.04069 57.0918 7.66992C56.8815 7.29915 56.5965 7.00586 56.2368 6.79004C55.8826 6.57422 55.4814 6.46631 55.0332 6.46631C54.6016 6.46631 54.2059 6.57145 53.8462 6.78174C53.4865 6.99202 53.1987 7.27979 52.9829 7.64502C52.7671 8.00472 52.6592 8.40869 52.6592 8.85693V8.87354C52.6592 9.33838 52.7616 9.75065 52.9663 10.1104C53.1711 10.4645 53.4505 10.744 53.8047 10.9487C54.1589 11.1535 54.5628 11.2559 55.0166 11.2559C55.4704 11.2559 55.8771 11.1562 56.2368 10.957C56.5965 10.7578 56.8815 10.4811 57.0918 10.127C57.3021 9.77279 57.4072 9.37158 57.4072 8.92334V8.90674H57.9053V11.1147H57.6147C57.4709 11.4302 57.2578 11.7235 56.9756 11.9946C56.6934 12.2658 56.3447 12.4844 55.9297 12.6504C55.5202 12.8164 55.0387 12.8994 54.4854 12.8994C53.7217 12.8994 53.0465 12.7279 52.46 12.3848C51.8734 12.0417 51.4113 11.5713 51.0737 10.9736C50.7417 10.376 50.5757 9.70085 50.5757 8.94824V8.93164C50.5757 8.11816 50.7638 7.396 51.1401 6.76514C51.522 6.12874 52.0477 5.6307 52.7173 5.271C53.3924 4.90576 54.1589 4.72314 55.0166 4.72314ZM63.5747 15.3896C63.1984 15.3896 62.883 15.2651 62.6284 15.0161C62.3794 14.7616 62.2549 14.4517 62.2549 14.0864C62.2549 13.7157 62.3794 13.4058 62.6284 13.1567C62.883 12.9022 63.1984 12.7749 63.5747 12.7749C63.9565 12.7749 64.272 12.9022 64.521 13.1567C64.77 13.4058 64.8945 13.7157 64.8945 14.0864C64.8945 14.4517 64.77 14.7616 64.521 15.0161C64.272 15.2651 63.9565 15.3896 63.5747 15.3896ZM63.5747 9.23047C63.1984 9.23047 62.883 9.10596 62.6284 8.85693C62.3794 8.60238 62.2549 8.29248 62.2549 7.92725C62.2549 7.55648 62.3794 7.24658 62.6284 6.99756C62.883 6.743 63.1984 6.61572 63.5747 6.61572C63.9565 6.61572 64.272 6.743 64.521 6.99756C64.77 7.24658 64.8945 7.55648 64.8945 7.92725C64.8945 8.29248 64.77 8.60238 64.521 8.85693C64.272 9.10596 63.9565 9.23047 63.5747 9.23047ZM73.1538 17V14.7007H67.2935V12.9492C67.6089 12.4124 67.9243 11.8729 68.2397 11.3306C68.5607 10.7882 68.8844 10.2487 69.2109 9.71191C69.543 9.1696 69.8722 8.63558 70.1987 8.10986C70.5308 7.57861 70.86 7.05566 71.1865 6.54102C71.5186 6.02083 71.8506 5.51449 72.1826 5.02197H75.1958V12.9326H76.8145V14.7007H75.1958V17H73.1538ZM69.2856 12.9824H73.187V6.73193H73.0625C72.819 7.10824 72.5672 7.49561 72.3071 7.89404C72.0526 8.29248 71.7952 8.69922 71.5352 9.11426C71.2751 9.5293 71.0177 9.9471 70.7632 10.3677C70.5086 10.7827 70.2568 11.2005 70.0078 11.6211C69.7588 12.0361 69.5181 12.4484 69.2856 12.8579V12.9824ZM81.77 17V7.13037H81.6206L78.6406 9.23047V7.22168L81.77 5.02197H83.9033V17H81.77Z" fill="#F6F7F7"/>
<path fill-rule="evenodd" clip-rule="evenodd" d="M287.616 6.03295C287.616 5.3999 287.138 4.88672 286.549 4.88672H285.483C284.894 4.88672 284.416 5.3999 284.416 6.03295V15.9669C284.416 16.5999 284.894 17.1131 285.483 17.1131H286.549C287.138 17.1131 287.616 16.5999 287.616 15.9669V6.03295ZM280.182 7.332H281.249C281.838 7.332 282.315 7.8575 282.315 8.50574V15.9394C282.315 16.5876 281.838 17.1131 281.249 17.1131H280.182C279.593 17.1131 279.115 16.5876 279.115 15.9394V8.50574C279.115 7.8575 279.593 7.332 280.182 7.332ZM275.85 9.98105H274.783C274.194 9.98105 273.717 10.5132 273.717 11.1697V15.9244C273.717 16.5809 274.194 17.1131 274.783 17.1131H275.85C276.439 17.1131 276.917 16.5809 276.917 15.9244V11.1697C276.917 10.5132 276.439 9.98105 275.85 9.98105ZM270.549 12.4263H269.483C268.894 12.4263 268.416 12.9509 268.416 13.598V15.9414C268.416 16.5885 268.894 17.1131 269.483 17.1131H270.549C271.138 17.1131 271.616 16.5885 271.616 15.9414V13.598C271.616 12.9509 271.138 12.4263 270.549 12.4263Z" fill="#F6F7F7"/>
<path fill-rule="evenodd" clip-rule="evenodd" d="M303.187 7.30222C305.674 7.30232 308.066 8.22441 309.868 9.87789C310.004 10.0055 310.221 10.0039 310.355 9.87428L311.652 8.61081C311.72 8.54505 311.757 8.45597 311.757 8.36329C311.756 8.27061 311.718 8.18197 311.649 8.11697C306.918 3.74226 299.454 3.74226 294.723 8.11697C294.655 8.18192 294.616 8.27054 294.615 8.36322C294.615 8.4559 294.652 8.545 294.72 8.61081L296.018 9.87428C296.151 10.0041 296.369 10.0057 296.504 9.87789C298.307 8.2243 300.699 7.30221 303.187 7.30222ZM303.183 11.5225C304.541 11.5224 305.849 12.0342 306.856 12.9583C306.992 13.0894 307.206 13.0866 307.339 12.9519L308.626 11.6326C308.694 11.5634 308.731 11.4695 308.73 11.3719C308.729 11.2744 308.69 11.1813 308.621 11.1135C305.557 8.22266 300.812 8.22266 297.748 11.1135C297.679 11.1813 297.64 11.2744 297.639 11.372C297.638 11.4696 297.676 11.5635 297.743 11.6326L299.03 12.9519C299.163 13.0866 299.377 13.0894 299.513 12.9583C300.519 12.0348 301.827 11.5231 303.183 11.5225ZM305.708 14.316C305.71 14.4214 305.672 14.523 305.605 14.5968L303.429 17.0515C303.365 17.1236 303.278 17.1642 303.187 17.1642C303.096 17.1642 303.009 17.1236 302.945 17.0515L300.768 14.5968C300.701 14.5229 300.664 14.4213 300.666 14.316C300.668 14.2106 300.709 14.1108 300.779 14.0402C302.169 12.7263 304.205 12.7263 305.595 14.0402C305.665 14.1109 305.706 14.2107 305.708 14.316Z" fill="#F6F7F7"/>
<rect opacity="0.35" x="319.256" y="5" width="24" height="12" rx="3.8" stroke="#F6F7F7"/>
<path opacity="0.4" d="M344.756 9.28125V13.3567C345.561 13.0116 346.084 12.2086 346.084 11.319C346.084 10.4294 345.561 9.62642 344.756 9.28125Z" fill="#F6F7F7"/>
<rect x="320.756" y="6.5" width="21" height="9" rx="2.5" fill="#F6F7F7"/>
</svg>
