<svg width="410" height="832" viewBox="0 0 410 832" fill="none" xmlns="http://www.w3.org/2000/svg">
<rect x="12.5" y="5" width="385" height="822" rx="45" stroke="black" stroke-width="10"/>
<path fill-rule="evenodd" clip-rule="evenodd" d="M6.5 296.5C10.0899 296.5 13 299.41 13 303L13 353C13 356.59 10.0898 359.5 6.5 359.5C2.91015 359.5 -2.62661e-06 356.59 -2.46969e-06 353L-2.84124e-07 303C-1.27207e-07 299.41 2.91015 296.5 6.5 296.5Z" fill="black"/>
<path fill-rule="evenodd" clip-rule="evenodd" d="M6.5 222.5C10.0899 222.5 13 225.41 13 229L13 279C13 282.59 10.0898 285.5 6.5 285.5C2.91015 285.5 -2.62661e-06 282.59 -2.46969e-06 279L-2.84124e-07 229C-1.27207e-07 225.41 2.91015 222.5 6.5 222.5Z" fill="black"/>
<path fill-rule="evenodd" clip-rule="evenodd" d="M6.5 185.5C10.0899 185.5 13 188.41 13 192L13 205C13 208.59 10.0898 211.5 6.5 211.5C2.91015 211.5 -1.00929e-06 208.59 -8.52372e-07 205L-2.84124e-07 192C-1.27207e-07 188.41 2.91015 185.5 6.5 185.5Z" fill="black"/>
<path fill-rule="evenodd" clip-rule="evenodd" d="M403.5 183.5C407.09 183.5 410 186.41 410 190L410 289C410 292.59 407.09 295.5 403.5 295.5C399.91 295.5 397 292.59 397 289L397 190C397 186.41 399.91 183.5 403.5 183.5Z" fill="black"/>
</svg>
