<svg width="24" height="24" viewBox="0 0 24 24" fill="none" xmlns="http://www.w3.org/2000/svg">
<g filter="url(#filter0_dd_17933_16042)">
<path d="M11.6316 17.0751C11.6579 17.0095 11.7322 16.9776 11.7978 17.0039C11.8635 17.0301 11.8953 17.1045 11.8691 17.1701C11.7661 17.4276 11.3721 17.8905 10.5986 17.8905C9.88825 17.8905 9.49358 17.572 9.35629 17.3506L9.33229 17.3078L9.32304 17.2836C9.30765 17.2261 9.33422 17.1637 9.38953 17.1361C9.4448 17.1085 9.51048 17.1246 9.54725 17.1713L9.56125 17.1933L9.5755 17.2183C9.66095 17.3532 9.96517 17.6345 10.5986 17.6345C11.2584 17.6345 11.564 17.2442 11.6316 17.0751Z" fill="#254545"/>
<path d="M10.2958 15.5961C10.3614 15.5699 10.4358 15.6017 10.462 15.6674C10.4882 15.733 10.4564 15.8073 10.3908 15.8336C10.3732 15.8406 10.341 15.8658 10.3085 15.9193C10.2776 15.9702 10.2542 16.0345 10.2458 16.0993C10.2374 16.1644 10.2451 16.2217 10.266 16.2647C10.2853 16.3044 10.3193 16.3399 10.3833 16.3612C10.4503 16.3836 10.4868 16.4561 10.4645 16.5232C10.445 16.5819 10.3869 16.617 10.3278 16.6099L10.3025 16.6042L10.2563 16.5864C10.1528 16.5408 10.0796 16.4668 10.0358 16.3767C9.98746 16.2772 9.97909 16.1665 9.99209 16.0663C10.0051 15.9657 10.0406 15.8674 10.0898 15.7863C10.1375 15.7079 10.2067 15.6317 10.2958 15.5961Z" fill="#254545"/>
<path fill-rule="evenodd" clip-rule="evenodd" d="M10.5985 11.4916C9.70265 12.8993 8.03895 13.0273 7.27109 12.5154C6.84638 12.9401 6.56549 13.6237 6.38752 14.3071C6.19009 15.0651 6.1193 15.8229 6.1193 16.2267C6.1193 16.5046 6.18635 16.8644 6.33663 17.2505C6.4379 17.5107 6.57698 17.7828 6.75881 18.0498C7.42542 19.0285 8.66664 19.938 10.7265 19.938C12.8602 19.938 14.1819 19.309 14.9497 18.5971C15.5082 18.0793 15.7737 17.5177 15.8455 17.1225C17.5092 17.7624 18.2771 15.7148 17.5092 14.563C16.895 13.6416 16.1442 14.0938 15.8455 14.435C15.6322 14.435 15.0777 14.0511 14.5658 12.5154C12.3902 13.0273 11.3664 12.5154 10.5985 11.4916ZM11.7978 17.0039C11.7322 16.9776 11.6579 17.0095 11.6316 17.0751C11.564 17.2442 11.2584 17.6345 10.5986 17.6345C9.96517 17.6345 9.66095 17.3532 9.5755 17.2183L9.56125 17.1933L9.54725 17.1713C9.51048 17.1246 9.4448 17.1085 9.38953 17.1361C9.33422 17.1637 9.30765 17.2261 9.32304 17.2836L9.33229 17.3078L9.35629 17.3506C9.49358 17.572 9.88825 17.8905 10.5986 17.8905C11.3721 17.8905 11.7661 17.4276 11.8691 17.1701C11.8953 17.1045 11.8635 17.0301 11.7978 17.0039ZM10.462 15.6674C10.4358 15.6017 10.3614 15.5699 10.2958 15.5961C10.2067 15.6317 10.1375 15.7079 10.0898 15.7863C10.0406 15.8674 10.0051 15.9657 9.99209 16.0663C9.97909 16.1665 9.98746 16.2772 10.0358 16.3767C10.0796 16.4668 10.1528 16.5408 10.2563 16.5864L10.3025 16.6042L10.3278 16.6099C10.3869 16.617 10.445 16.5819 10.4645 16.5232C10.4868 16.4561 10.4503 16.3836 10.3833 16.3612C10.3193 16.3399 10.2853 16.3044 10.266 16.2647C10.2451 16.2217 10.2374 16.1644 10.2458 16.0993C10.2542 16.0345 10.2776 15.9702 10.3085 15.9193C10.341 15.8658 10.3732 15.8406 10.3908 15.8336C10.4564 15.8073 10.4882 15.733 10.462 15.6674Z" fill="#C5CCCB"/>
<path d="M6.1193 16.2267C6.1193 15.8229 6.19009 15.0651 6.38752 14.3071C5.60739 13.4112 4.4556 14.563 4.58358 15.7148C4.71156 16.8666 5.40216 17.2505 6.33663 17.2505C6.18635 16.8644 6.1193 16.5046 6.1193 16.2267Z" fill="#ABB5B4"/>
<path d="M7.27109 12.5154C8.03895 13.0273 9.70265 12.8993 10.5985 11.4916C11.3664 12.5154 12.3902 13.0273 14.5658 12.5154C15.0777 14.0511 15.6322 14.435 15.8455 14.435C16.1442 14.0938 16.895 13.6416 17.5092 14.563C18.2771 15.7148 17.5092 17.7624 15.8455 17.1225C15.7737 17.5177 15.5082 18.0793 14.9497 18.5971C18.661 20.3275 20.8366 17.3786 20.3247 15.8429C22.8843 14.1792 21.6045 10.7238 19.5569 10.0839C19.045 8.03629 17.3813 7.14045 15.0777 7.26843C14.8217 6.24472 13.158 4.19688 10.7265 4.0689C8.29491 3.94093 6.63139 5.60463 6.1193 8.29214C3.81572 8.29214 2.53595 11.1076 3.43197 13.0273C2.96272 13.1553 2.07542 13.8463 2.28018 15.5868C2.53076 17.7167 5.20559 18.6135 6.75881 18.0498C6.57698 17.7828 6.4379 17.5107 6.33663 17.2505C5.40216 17.2505 4.71156 16.8666 4.58358 15.7148C4.4556 14.563 5.60739 13.4112 6.38752 14.3071C6.56549 13.6237 6.84638 12.9401 7.27109 12.5154Z" fill="#ECEFEE"/>
<path d="M9.29583 15.0263C9.31894 14.9596 9.39179 14.924 9.45855 14.9471C9.5253 14.9702 9.56082 15.043 9.53779 15.1098C9.44166 15.3875 9.11838 15.7079 8.58996 15.7079C8.09273 15.7079 7.86392 15.3472 7.7851 15.172L7.76011 15.1098L7.75411 15.0848C7.74626 15.0258 7.78087 14.9673 7.83934 14.9471C7.89771 14.9269 7.96071 14.9515 7.99107 15.0026L8.00206 15.0263L8.02106 15.0733C8.07994 15.203 8.24382 15.452 8.58996 15.452C9.0064 15.452 9.2344 15.2036 9.29583 15.0263Z" fill="#254545"/>
<path d="M13.3911 15.0263C13.4142 14.9596 13.4871 14.924 13.5538 14.9471C13.6206 14.9702 13.6561 15.043 13.633 15.1098C13.5369 15.3875 13.2136 15.7079 12.6852 15.7079C12.188 15.7079 11.9592 15.3472 11.8804 15.172L11.8554 15.1098L11.8494 15.0848C11.8415 15.0258 11.8761 14.9673 11.9346 14.9471C11.993 14.9269 12.056 14.9515 12.0863 15.0026L12.0973 15.0263L12.1163 15.0733C12.1752 15.203 12.3391 15.452 12.6852 15.452C13.1017 15.452 13.3297 15.2036 13.3911 15.0263Z" fill="#254545"/>
</g>
<defs>
<filter id="filter0_dd_17933_16042" x="-1.33333" y="-1" width="26.6667" height="26.6667" filterUnits="userSpaceOnUse" color-interpolation-filters="sRGB">
<feFlood flood-opacity="0" result="BackgroundImageFix"/>
<feColorMatrix in="SourceAlpha" type="matrix" values="0 0 0 0 0 0 0 0 0 0 0 0 0 0 0 0 0 0 127 0" result="hardAlpha"/>
<feOffset dy="0.166667"/>
<feGaussianBlur stdDeviation="0.166667"/>
<feComposite in2="hardAlpha" operator="out"/>
<feColorMatrix type="matrix" values="0 0 0 0 0.0392157 0 0 0 0 0.0431373 0 0 0 0 0.0392157 0 0 0 0.3 0"/>
<feBlend mode="normal" in2="BackgroundImageFix" result="effect1_dropShadow_17933_16042"/>
<feColorMatrix in="SourceAlpha" type="matrix" values="0 0 0 0 0 0 0 0 0 0 0 0 0 0 0 0 0 0 127 0" result="hardAlpha"/>
<feMorphology radius="0.333333" operator="dilate" in="SourceAlpha" result="effect2_dropShadow_17933_16042"/>
<feOffset dy="0.333333"/>
<feGaussianBlur stdDeviation="0.5"/>
<feComposite in2="hardAlpha" operator="out"/>
<feColorMatrix type="matrix" values="0 0 0 0 0.0392157 0 0 0 0 0.0431373 0 0 0 0 0.0392157 0 0 0 0.15 0"/>
<feBlend mode="normal" in2="effect1_dropShadow_17933_16042" result="effect2_dropShadow_17933_16042"/>
<feBlend mode="normal" in="SourceGraphic" in2="effect2_dropShadow_17933_16042" result="shape"/>
</filter>
</defs>
</svg>
