<svg width="400" height="400" viewBox="0 0 400 400" fill="none" xmlns="http://www.w3.org/2000/svg">
<g clip-path="url(#clip0_17836_21892)">
<path d="M226.856 157.878C234.967 158.104 252.701 156.978 258.908 161.017C275.112 173.485 270.091 182.982 271.498 200.614C273.175 204.295 275.458 210.481 277.264 213.768C282.015 222.415 284.466 231.714 288.337 240.408C298.896 264.121 298.142 294.076 266.985 299.797C264.721 300.212 258.057 299.922 256.384 300.793L256.086 301.237C258.953 310.377 261.04 319.442 263.718 328.586C258.945 328.555 233.916 328.237 230.577 328.9C225.571 327.76 204.332 328.537 198.567 328.816C195.4 328.112 176.972 328.547 172.94 328.609C162.482 327.861 150.915 328.13 140.392 328.409C137.424 327.633 115.382 328.531 110.774 328.67C111.221 319.623 114.113 310.457 115.977 301.596C118.946 287.485 121.401 273.134 125.14 259.203C127.266 251.278 129.971 243.498 131.856 235.496C134.342 231.248 138.38 221.151 140.757 216.073C144.729 207.589 149.45 198.814 153.253 190.412C152.291 186.782 150.868 183.504 150.841 179.81C158.617 189.344 161.989 191.407 172.907 196.711C188.16 197.251 199.516 187.208 210.902 178.123C215.982 173.263 222.217 168.324 227.68 163.796C227.196 161.089 227.145 160.584 225.789 158.217L226.856 157.878Z" fill="#E85B33"/>
<path d="M226.856 157.878C234.967 158.104 252.701 156.978 258.908 161.017C275.112 173.485 270.091 182.982 271.498 200.614C273.175 204.295 275.458 210.481 277.264 213.768C282.015 222.415 284.466 231.714 288.337 240.408C298.896 264.121 298.142 294.076 266.985 299.797C264.721 300.212 258.057 299.922 256.384 300.793L256.086 301.237L255.768 300.045C256.475 299.337 257.155 298.603 257.808 297.845C262.855 292.058 262.801 288.293 262.325 281.133L261.678 280.123C258.269 279.443 231.508 278.798 228.859 280.478L226.856 283.157C222.675 280.026 222.481 278.962 222.256 273.953C222.584 267.437 222.833 260.917 223.004 254.394C210.599 250.824 177.897 210.265 172.907 196.711C188.16 197.251 199.516 187.208 210.902 178.123C215.982 173.263 222.217 168.324 227.68 163.796C227.196 161.089 227.145 160.584 225.789 158.217L226.856 157.878Z" fill="#E85B33"/>
<path d="M226.856 157.878C234.967 158.104 252.701 156.978 258.908 161.017C275.112 173.485 270.091 182.982 271.498 200.614C273.175 204.295 275.458 210.481 277.264 213.768C282.015 222.415 284.466 231.714 288.337 240.408C298.896 264.121 298.142 294.076 266.985 299.797C264.721 300.212 258.057 299.922 256.384 300.793L256.086 301.237L255.768 300.045C256.475 299.337 257.155 298.603 257.808 297.845C262.855 292.058 262.801 288.293 262.325 281.133L262.896 280.073C265.279 279.432 269.218 279.662 271.803 279.691C271.568 264.232 269.968 246.596 267.634 231.369C264.822 213.01 249.168 181.201 233.599 170.487C233.516 169.386 229.25 165.691 227.68 163.796C227.196 161.089 227.145 160.584 225.789 158.217L226.856 157.878Z" fill="#A83622"/>
<path d="M210.902 178.123C210.661 181.466 209.575 184.605 209.505 187.98C209.171 204.024 214.752 219.407 223.692 232.598C223.839 233.545 223.181 253.527 223.004 254.394C210.599 250.824 177.897 210.265 172.907 196.711C188.16 197.251 199.516 187.208 210.902 178.123Z" fill="#E85B33"/>
<path d="M227.68 163.796C229.25 165.691 233.516 169.386 233.599 170.487C222.03 180.356 224.222 191.791 224.492 205.721C224.403 210.596 225.192 229.693 223.692 232.598C214.752 219.407 209.171 204.024 209.505 187.98C209.575 184.605 210.661 181.466 210.902 178.123C215.982 173.263 222.217 168.324 227.68 163.796Z" fill="#5A342B"/>
<path d="M224.492 205.721C225.964 216.886 223.109 277.051 226.022 280.199C227.275 280.439 227.582 280.47 228.859 280.478L226.856 283.157C222.675 280.026 222.481 278.962 222.256 273.953C222.584 267.437 222.833 260.917 223.004 254.394C223.181 253.527 223.839 233.545 223.692 232.598C225.192 229.693 224.403 210.596 224.492 205.721Z" fill="#A83622"/>
<path d="M150.841 179.81C158.617 189.344 161.989 191.407 172.907 196.711C177.897 210.265 210.599 250.824 223.004 254.394C222.833 260.917 222.584 267.437 222.256 273.953C220.505 273.725 213.052 267.918 211.046 266.5C187.15 249.61 161.806 218.698 153.253 190.412C152.291 186.782 150.868 183.504 150.841 179.81Z" fill="#EDA245"/>
<path d="M228.859 280.478C231.508 278.798 258.269 279.443 261.678 280.123L262.325 281.133C262.801 288.293 262.855 292.058 257.808 297.845C257.155 298.603 256.475 299.337 255.768 300.045C252.423 301.905 249.819 302.806 245.946 303.168C238.687 303.844 238.388 296.364 234.221 292.923C229.934 293.948 224.337 295.435 225.017 288.576C225.243 286.294 225.365 285.012 226.856 283.157L228.859 280.478Z" fill="#FEC991"/>
<path d="M140.366 60.6251C141.896 56.3268 144.261 49.3132 146.165 45.4171C150.406 37.4318 158.85 29.5165 167.006 25.6601C177.357 20.7644 189.54 20.658 200.225 24.2699C211.421 28.0546 223.715 39.8639 226.16 51.8262C251.216 49.6228 259.474 55.6138 268.015 78.4344C276.335 81.444 282.929 85.9241 286.895 94.1784C290.399 101.577 290.811 110.061 288.038 117.761C285.366 125.003 281.121 127.694 276.313 133.222C278.554 146.483 272.195 157.348 258.908 161.017C252.701 156.978 234.967 158.104 226.856 157.878L225.789 158.217C227.145 160.584 227.196 161.089 227.68 163.796C222.217 168.324 215.982 173.263 210.902 178.123C199.516 187.208 188.16 197.251 172.907 196.711C161.989 191.407 158.617 189.344 150.841 179.81C149.572 177.858 147.217 172.877 146.943 170.529L146.338 169.791C144.572 164.898 147.65 158.558 150.532 154.651C149.395 152.785 150.019 153.317 148.247 152.393C131.324 156.28 118.899 153.535 108.391 139.04C101.483 125.21 105.945 114.799 116.385 105.098C115.234 101.348 114.795 99.1237 114.109 95.2721C114.27 79.4616 119.368 68.4182 134.686 62.3519L140.366 60.6251Z" fill="#FEECCE"/>
<path d="M184.798 91.1981C192.043 104.165 209.363 107.203 221.723 100.338C225.289 109.256 226.667 111.864 232.921 119.181C238.786 114.503 245.217 113.675 250.229 120.146C252.808 123.54 253.914 127.823 253.298 132.037C251.706 143.526 243.701 145.959 233.646 144.975C231.955 148.348 226.321 155.688 226.282 157.319L226.856 157.878L225.789 158.217C227.145 160.584 227.196 161.089 227.68 163.796C222.217 168.324 215.982 173.263 210.902 178.123C199.516 187.208 188.16 197.251 172.907 196.711C161.989 191.407 158.617 189.344 150.841 179.81C149.572 177.858 147.217 172.877 146.943 170.529L146.338 169.791C144.572 164.898 147.65 158.558 150.532 154.651C149.395 152.785 150.019 153.317 148.247 152.393C147.971 149.281 146.723 146.437 143.674 145.441L144.292 145.078C144.9 142.898 141.651 133.653 141.585 130.188C141.515 126.465 144.245 119.359 144.309 117.038L143.569 116.298C145.332 115.308 150.089 103.961 151.506 101.035C166.54 106.49 175.05 103.454 184.798 91.1981Z" fill="#FEC991"/>
<path d="M150.532 154.651C157.457 163.61 170.913 169.545 182.01 170.726C199.24 172.56 212.294 168.38 225.789 158.217C227.145 160.584 227.196 161.089 227.68 163.796C222.217 168.324 215.982 173.263 210.902 178.123C199.516 187.208 188.16 197.251 172.907 196.711C161.989 191.407 158.617 189.344 150.841 179.81C149.572 177.858 147.217 172.877 146.943 170.529L146.338 169.791C144.572 164.898 147.65 158.558 150.532 154.651Z" fill="#17676B"/>
<path d="M200.911 119.24C208.778 121.042 209.851 129.896 202.961 132.996C199.996 132.978 197.1 131.02 196.993 127.778C196.855 123.63 198.153 122.116 200.911 119.24Z" fill="#4F312A"/>
<path d="M165.071 119.384C172.267 119.887 173.497 128.045 168.11 132.846C159.258 133.586 159.361 124.614 165.071 119.384Z" fill="#4F312A"/>
<path d="M195.256 143.73C195.779 143.831 195.691 143.929 196.214 144.416C196.134 145.437 196.037 145.692 195.349 146.516C192.811 149.572 189.161 151.503 185.199 151.886C180.01 152.426 176.815 150.261 173.023 147.152C172.271 146.22 172.283 146.283 172.182 145.1C174.234 143.646 178.482 148.023 184.075 148.831C188.176 147.882 191.567 145.757 195.256 143.73Z" fill="#4F312A"/>
<path d="M182.056 130.305L182.645 131.33C181.582 135.504 182.674 136.137 182.622 139.734L181.271 140.402C176.471 137.474 177.118 132.821 182.056 130.305Z" fill="#4F312A"/>
<path d="M143.674 145.441C141.466 145.33 138.955 145.269 136.884 144.515C133.349 143.243 130.478 140.603 128.92 137.193C124.434 127.398 130.809 111.112 143.569 116.298L144.309 117.038C144.245 119.359 141.515 126.465 141.585 130.188C141.651 133.653 144.9 142.898 144.292 145.078L143.674 145.441Z" fill="#FEC991"/>
<path d="M298.596 309.142C302.505 309.167 306.207 310.323 309.235 307.546C313.732 303.425 321.577 287.687 328.939 290.589C333.584 295.731 330.025 319.8 330.808 327.335C331.545 334.437 342.492 341.064 333.933 346.919C328.966 350.317 324.992 353.094 318.983 354.218C327.718 363.719 337.074 371.484 337.554 385.446C337.599 386.76 337.208 387.106 337.445 388.667L338.458 389.191C346.873 385.637 340.815 353.462 343.967 343.733C349.918 325.373 358.84 318.347 377.553 315.601C371.682 332.483 374.294 338.12 377.736 354.697C381.01 370.472 375.769 388.217 360.064 395.126C349.834 399.894 317.916 400.181 306.391 399.567L303.669 399.602C299.848 399.584 296.134 399.779 292.319 399.955C291.651 399.937 290.492 399.773 289.785 399.69C285.572 399.524 278.71 400.561 275.035 398.943C272.417 395.812 276.929 393.106 279.312 391.112C279.86 378.582 279.79 369.28 283.479 357.186C276.43 356.541 264.816 350.446 259.864 345.15C254.11 340.596 256.772 333.987 265.084 336.859C268.753 332.66 270.543 326.308 276.733 319.274C280.07 301.161 286.528 272.031 298.596 309.142Z" fill="#E85B33"/>
<path d="M303.669 399.602C308.024 391.112 310.004 395.21 308.823 383.971C308.537 381.249 314.274 375.402 317.22 374.78C315.91 378.541 311.536 380.834 310.877 385.329C310.525 387.728 312.706 392.338 311.767 393.306C309.12 396.032 308.057 395.536 306.391 399.567L303.669 399.602Z" fill="#4F312A"/>
<path d="M259.864 345.15C254.11 340.596 256.772 333.987 265.084 336.859C266.093 338.447 266.379 338.771 266.351 340.694C265.448 343.449 262.375 344.168 259.864 345.15Z" fill="#4F312A"/>
<path d="M294.609 374.449C295.164 380.971 293.217 393.086 292.319 399.955C291.651 399.937 290.492 399.773 289.785 399.69C290.939 393.291 292.838 379.901 294.609 374.449Z" fill="#4F312A"/>
<path d="M298.602 329.43C300.441 330.431 302.231 332.522 303.721 334.077C302.431 335.678 300.991 337.325 299.661 338.905C293.586 337.613 294.37 332.744 298.602 329.43Z" fill="#4F312A"/>
<path d="M280.672 328.785C282.96 330.581 283.873 331.103 284.244 333.911C283.218 336 283.508 335.396 281.337 336.783C279.219 336.15 278.713 335.39 278.181 333.428C278.472 331.279 279.316 330.49 280.672 328.785Z" fill="#4F312A"/>
<path d="M26.5163 27.2166C35.2774 7.39694 56.8084 -3.54418 78.0366 1.03614C99.2648 5.61646 114.334 24.4548 114.097 46.1136C113.858 67.7723 98.3769 86.2764 77.054 90.3916C71.5291 91.4578 65.8538 91.4981 60.3125 90.5099C43.2475 87.4665 29.3756 75.0629 24.4872 58.4767C21.4405 48.1445 22.1594 37.071 26.5163 27.2166Z" fill="#FEC991"/>
<path d="M63.4828 18.0051C78.6999 15.2432 93.2723 25.3367 95.9915 40.5221C98.7107 55.7077 88.5405 70.2063 73.3028 72.8662C58.1392 75.5136 43.6843 65.4299 40.9795 50.3163C38.2727 35.2026 48.3357 20.754 63.4828 18.0051Z" fill="#FEECCE"/>
<path d="M60.5329 184.147C63.1141 185.266 64.9907 185.301 68.5998 187.021L69.8956 188.294C71.9864 186.337 73.6571 185.129 76.5514 184.654C77.2724 184.693 78.7947 184.814 79.4395 184.765C80.3644 185.509 82.686 187.353 83.2917 188.224C87.6238 194.463 88.0914 206.798 86.6803 214.006C83.9076 217.472 81.2543 219.75 76.6956 220.159L76.1661 223.873C76.6997 228.931 76.2403 239.092 76.2259 244.731L76.2032 354.832C76.2156 363.925 77.3198 390.916 74.7386 398.419C70.9462 399.857 65.2832 401.059 62.0037 398.035C59.6842 394.111 60.5556 337.093 60.5576 328.031L60.4381 219.232C55.0842 216.79 51.6708 215.5 49.308 209.569C47.4273 204.848 47.6436 197.878 49.8683 193.323C52.4825 187.974 55.2367 186.176 60.5329 184.147Z" fill="#53322B"/>
<path d="M60.5329 184.147C63.1141 185.266 64.9907 185.301 68.5998 187.021C60.5576 196.826 58.4008 201.056 71.1274 208.139C68.8964 214.551 67.5966 217.644 60.4381 219.232C55.0842 216.79 51.6708 215.5 49.308 209.569C47.4273 204.848 47.6436 197.878 49.8683 193.323C52.4825 187.974 55.2367 186.176 60.5329 184.147Z" fill="#FEC991"/>
<path d="M76.5514 184.654C77.2724 184.693 78.7947 184.814 79.4395 184.765C80.3644 185.509 82.686 187.353 83.2917 188.224C87.6238 194.463 88.0914 206.798 86.6803 214.006C83.9076 217.472 81.2543 219.75 76.6956 220.159C76.4628 210.808 75.6037 204.024 80.0327 195.766C76.9448 199.236 70.9976 206.455 65.7632 202.492C62.5228 197.457 66.8921 192.115 69.8956 188.294C71.9864 186.337 73.6571 185.129 76.5514 184.654Z" fill="#FEC991"/>
<path d="M140.392 328.409C150.915 328.13 162.482 327.861 172.94 328.609C172.775 333.586 172.238 343.634 172.761 348.217C174.213 348.957 176.098 349.826 176.284 351.473C177.373 361.147 177.862 391.506 175.857 399.378C168.845 400.087 120.229 400.222 115.022 398.891C114.192 397.807 114.227 397.114 114.519 395.728C117.267 382.767 122.157 375.659 135.391 372.049C135.335 367.491 134.458 353.926 137.037 349.881C137.249 349.548 138.965 348.583 139.441 348.322C140.498 346.196 140.281 331.85 140.392 328.409Z" fill="#EDA245"/>
<path d="M140.392 328.409C150.915 328.13 162.482 327.861 172.94 328.609C172.775 333.586 172.238 343.634 172.761 348.217C169.704 348.998 142.242 349.119 139.441 348.322C140.498 346.196 140.281 331.85 140.392 328.409Z" fill="#5A342B"/>
<path d="M146.338 169.791L146.943 170.529C147.217 172.877 149.572 177.858 150.841 179.81C150.868 183.504 152.291 186.782 153.253 190.412C149.45 198.814 144.729 207.589 140.757 216.073C138.38 221.151 134.342 231.248 131.856 235.496C131.675 231.893 131.813 229.247 132.002 225.673C113.705 230.521 104.015 232.454 84.7172 232.037C80.2861 230.829 80.7146 226.889 76.1661 223.873L76.6956 220.159C81.2543 219.75 83.9076 217.472 86.6803 214.006C88.0914 206.798 87.6238 194.463 83.2917 188.224C82.686 187.353 80.3644 185.509 79.4395 184.765C87.2613 184.091 95.1922 184.849 103.123 184.292C120.88 183.052 131.366 178.304 146.338 169.791Z" fill="#E85B33"/>
<path d="M146.943 170.529C147.217 172.877 149.572 177.858 150.841 179.81C150.868 183.504 152.291 186.782 153.253 190.412C149.45 198.814 144.729 207.589 140.757 216.073C138.38 221.151 134.342 231.248 131.856 235.496C131.675 231.893 131.813 229.247 132.002 225.673C133.496 213.277 137.292 198.897 140.819 186.879C142.279 181.903 145.753 175.467 146.943 170.529Z" fill="#5A342B"/>
<path d="M86.6803 214.006C88.0853 217.199 84.6492 226.435 84.7172 232.037C80.2861 230.829 80.7146 226.889 76.1661 223.873L76.6956 220.159C81.2543 219.75 83.9076 217.472 86.6803 214.006Z" fill="#A83622"/>
<path d="M198.567 328.816C204.332 328.537 225.571 327.76 230.577 328.9C231.629 334.18 230.789 344.065 232.666 347.578C237.282 350.321 235.636 366.156 235.64 371.55C235.642 376.75 236.582 394.719 234.952 398.394C232.521 400.337 184.701 400.508 182.33 398.955C177.582 392.252 189.468 378.305 194.484 374.2C194.397 369.675 193.171 352.546 195.322 349.75C196.517 349.238 197.625 348.768 198.849 348.316C199.726 345.526 198.657 332.763 198.567 328.816Z" fill="#EDA245"/>
<path d="M198.567 328.816C204.332 328.537 225.571 327.76 230.577 328.9C231.629 334.18 230.789 344.065 232.666 347.578C227.862 350.136 209.499 348.353 203.181 348.766C202.394 348.817 199.636 348.61 198.849 348.316C199.726 345.526 198.657 332.763 198.567 328.816Z" fill="#5A342B"/>
<path d="M60.3125 90.5099C65.8538 91.4981 71.5291 91.4578 77.054 90.3916C76.9119 94.8965 76.8027 99.4023 76.7265 103.909C76.3536 130.823 76.2959 157.74 76.5514 184.654C73.6571 185.129 71.9864 186.337 69.8956 188.294L68.5998 187.021C64.9907 185.301 63.1141 185.266 60.5329 184.147C60.022 178.341 60.6689 166.017 60.6071 159.708C60.434 142.538 60.6894 125.177 60.1291 108.012C60.4567 104.057 60.2548 94.9403 60.3125 90.5099Z" fill="#53322B"/>
<path d="M24.4872 58.4767C21.8216 55.9036 21.6877 50.6676 21.0944 46.772L21.2303 51.2068C19.4876 46.0297 19.7492 42.9033 21.0614 37.7097L21.2015 41.5556C21.8195 38.0199 23.5273 29.0959 26.5163 27.2166C22.1594 37.071 21.4405 48.1445 24.4872 58.4767Z" fill="#FEECCE" fill-opacity="0.223529"/>
</g>
<defs>
<clipPath id="clip0_17836_21892">
<rect width="400" height="400" fill="white"/>
</clipPath>
</defs>
</svg>
