<svg width="400" height="400" viewBox="0 0 400 400" fill="none" xmlns="http://www.w3.org/2000/svg">
<path d="M122.382 140.88L122.235 140.605C118.307 133.048 117.701 124.447 120.311 116.333C129.296 88.3985 153.479 93.2084 155.66 90.4599C156.907 88.89 157.854 86.5395 158.906 84.7849C162.517 78.7643 167.577 73.7805 173.884 70.6411C185.311 64.8733 198.57 63.9002 210.718 67.9379C219.903 71.0751 228.193 77.9919 232.542 86.7172C238.943 83.7593 244.257 83.0843 251.347 83.6163C267.174 84.8033 280.663 101.613 278.812 117.462C283.249 119.919 287.004 121.492 290.143 125.621C297.842 135.752 297.257 150.87 286.489 158.586C283.379 158.409 280.212 157.748 278.072 160.077C273.05 165.546 272.435 170.474 264 172.558C261.708 173.125 256.637 172.369 255.067 172.767C254.537 174.354 253.651 174.865 252.822 176.27C250.094 180.902 246.712 185.34 246.323 190.839C233.192 203.527 219.039 216.119 203.547 225.832C200.845 224.886 198.866 223.354 196.734 221.52C194.065 217.133 192.348 215.631 187.126 216.136C185.624 215.514 182.489 214.642 180.653 213.979C179.091 210.83 177.376 208.572 175.923 205.174C170.577 199.745 168.092 196.781 160.87 194.037C158.767 188.785 151.586 169.767 146.3 168.729C144.898 169.049 144.289 170.067 143.306 171.209C138.011 182.448 138.922 184.586 135.652 194.712C133.204 192.987 128.738 189.467 126.725 187.3C126.906 185.11 127.365 182.8 127.749 180.623C114.553 172.935 109.438 160.631 117.517 146.173C118.733 143.997 120.522 142.519 122.382 140.88Z" fill="#FEECCE"/>
<path d="M169.556 129.76C183.815 138.036 191.597 133.116 203.469 123.709C205.882 126.852 208.759 129.609 212.002 131.885C230.548 144.747 234.172 126.616 244.621 124.99C247.336 124.568 249.872 125.452 252.043 127.065C255.82 129.873 258.633 134.051 259.267 138.743C259.812 142.772 258.82 146.944 256.282 150.153C253.647 153.487 250.125 155.351 245.963 155.89C245.867 158.328 245.525 160.729 246.514 162.898C254.984 162.774 251.26 169.251 255.067 172.767C254.537 174.354 253.651 174.865 252.822 176.27C250.094 180.902 246.712 185.34 246.323 190.839C233.192 203.527 219.039 216.119 203.547 225.832C200.845 224.886 198.866 223.354 196.734 221.52C194.065 217.133 192.348 215.631 187.126 216.136C185.624 215.514 182.489 214.642 180.653 213.979C179.091 210.83 177.376 208.572 175.923 205.174C170.577 199.745 168.092 196.781 160.87 194.037C158.767 188.785 151.586 169.767 146.3 168.729C144.898 169.049 144.289 170.067 143.306 171.209C142.884 170.56 142.397 169.648 141.974 169.053C139.129 165.033 146.361 159.078 148.198 155.498C149.321 153.31 149.728 151.765 150.43 149.251C161.623 148.367 168.281 140.575 169.556 129.76Z" fill="#FEC991"/>
<path d="M246.514 162.898C254.984 162.774 251.26 169.251 255.067 172.767C254.537 174.354 253.651 174.865 252.822 176.27C250.094 180.902 246.712 185.34 246.323 190.839C233.192 203.527 219.039 216.119 203.547 225.832C200.845 224.886 198.866 223.354 196.734 221.52C194.065 217.133 192.348 215.631 187.126 216.136C185.624 215.514 182.489 214.642 180.653 213.979C179.091 210.83 177.376 208.572 175.923 205.174C203.035 209.658 221.694 200.278 237.543 177.635C240.837 172.929 243.114 167.445 246.514 162.898Z" fill="#17676B"/>
<path d="M203.7 148.314L206.145 149.117C211.751 154.983 203.86 169.015 193.536 159.137C192.472 157.258 191.786 156.41 192.884 154.326C194.906 154.156 206.46 168.793 203.7 148.314Z" fill="#080403"/>
<path d="M172.344 162.973C176.819 165.433 177.446 170.641 173.954 174.229C172.471 175.771 170.416 176.634 168.275 176.615C165.162 176.604 163.613 174.966 161.638 172.92C160.533 170.528 160.417 169.149 162.363 167.28C164.219 168.182 166 174.857 169.739 173.242C175.129 170.917 170.658 166.437 172.344 162.973Z" fill="#080403"/>
<path d="M202.503 177.846C204.39 178.381 204.56 178.85 205.079 180.563C204.822 182.459 203.456 184.505 202.026 185.71C196.349 190.491 194.785 191.054 188.073 190.933C186.122 190.453 185.871 190.021 184.853 188.289C187.816 183.522 195.244 193.334 202.503 177.846Z" fill="#080403"/>
<path d="M185.019 168.992C186.313 169.249 186.366 169.249 187.399 170.029C187.635 171.516 186.515 172.763 185.803 174.701C186.09 176.342 185.792 175.788 186.828 176.917C189.09 177.003 188.935 175.677 191.118 175.611C191.903 176.826 191.635 176.615 191.633 178.345C187.913 180.74 184.262 180.97 182.838 175.729C182.087 172.963 183.541 171.308 185.019 168.992Z" fill="#080403"/>
<path d="M255.067 172.767C256.637 172.369 261.708 173.125 264 172.558C272.435 170.474 273.05 165.546 278.072 160.077C280.212 157.748 283.379 158.409 286.489 158.586C288.796 159.24 292.26 159.018 294.365 160.181C309.299 168.418 318.04 188.024 324.903 202.789C329.276 213.085 331.587 219.792 333.387 230.7C334.051 237.312 332.936 243.352 328.542 248.529C323.409 254.574 313.57 259.854 305.556 260.404C305.771 265.525 306.422 272.61 305.405 277.521C301.549 278.277 292.188 285.956 286.755 288.04C281.687 289.985 269.956 290.415 267.072 291.775C269.394 299.127 273.881 320.529 271.558 327.529C266.185 327.096 257.345 329.655 251.247 330.026C229.655 331.345 196.521 335.674 182.904 314.489C180.664 311.004 181.174 305.754 179.151 303.691C177.27 303.127 177.638 303.352 175.523 303.808C175.529 301.827 175.359 299.873 175.218 297.898C172.933 295.458 170.541 293.03 168.577 290.336C168.126 286.282 167.283 280.436 168.396 276.545L169.001 276.598C168.617 275.288 169.571 274.059 169.047 271.809C175.408 270.712 178.859 269.439 184.86 267.04C179.979 258.492 178.159 249.484 176.54 239.924C177.436 237.137 183.93 235.931 186.452 234.414C187.796 233.605 189.758 232.33 191.084 231.71C192.946 229.586 194.55 229.488 193.897 226.516C195.291 224.639 195.725 223.655 196.734 221.52C198.866 223.354 200.845 224.886 203.547 225.832C219.039 216.119 233.192 203.527 246.323 190.839C246.712 185.34 250.094 180.902 252.822 176.27C253.651 174.865 254.537 174.354 255.067 172.767Z" fill="#E85B33"/>
<path d="M169.001 276.598C176.048 277.913 186.347 280.323 193.593 279.617C207.599 279.737 217.538 280.862 230.659 286.519C236.496 289.035 242.807 292.292 248.646 294.542C254.454 293.726 261.404 292.925 267.072 291.775C269.394 299.127 273.881 320.529 271.558 327.529C266.185 327.096 257.345 329.655 251.247 330.026C229.655 331.345 196.521 335.674 182.904 314.489C180.664 311.004 181.174 305.754 179.151 303.691C177.27 303.127 177.638 303.352 175.523 303.808C175.529 301.827 175.359 299.873 175.218 297.898C172.933 295.458 170.541 293.03 168.577 290.336C168.126 286.282 167.283 280.436 168.396 276.545L169.001 276.598Z" fill="#5A342B"/>
<path d="M255.067 172.767C256.637 172.369 261.708 173.125 264 172.558C272.435 170.474 273.05 165.546 278.072 160.077C280.212 157.748 283.379 158.409 286.489 158.586C288.796 159.24 292.26 159.018 294.365 160.181C309.299 168.418 318.04 188.024 324.903 202.789C329.276 213.085 331.587 219.792 333.387 230.7C334.051 237.312 332.936 243.352 328.542 248.529C323.409 254.574 313.57 259.854 305.556 260.404C304.453 257.953 302.841 253.145 302.509 250.507C306.539 247.241 303.121 236.087 297.297 234.58C297.419 234.419 297.629 234.171 297.61 234.011C296.233 222.272 289.101 205.817 283.07 195.993C279.808 190.675 272.59 179.719 267.647 178.59C261.799 177.256 251.634 187.522 246.766 190.566L246.323 190.839C246.712 185.34 250.094 180.902 252.822 176.27C253.651 174.865 254.537 174.354 255.067 172.767Z" fill="#A83622"/>
<path d="M261.506 241.435C271.818 246.12 278.499 248.8 290.081 249.482C292.229 249.608 300.983 250.055 302.509 250.507C302.841 253.145 304.453 257.953 305.556 260.404C305.771 265.525 306.422 272.61 305.405 277.521C301.549 278.277 292.188 285.956 286.755 288.04C281.687 289.985 269.956 290.415 267.072 291.775C261.404 292.925 254.454 293.726 248.646 294.542C242.807 292.292 236.496 289.035 230.659 286.519C217.538 280.862 207.599 279.737 193.593 279.617C196.932 274.057 215.153 270.794 221.664 268.37C231.583 264.675 257.118 251.088 261.506 241.435Z" fill="#E85B33"/>
<path d="M271.345 227.119L272.63 228.086C276.748 231.766 291.69 234.114 297.297 234.58C303.121 236.087 306.539 247.241 302.509 250.507C300.983 250.055 292.229 249.608 290.081 249.482C278.499 248.8 271.818 246.12 261.506 241.435L260.007 240.518C261.393 238.326 269.523 229.173 271.345 227.119Z" fill="#5A342B"/>
<path d="M184.86 267.04C185.671 268.547 186.56 271.446 187.718 272.147C190.192 273.647 196.702 272.29 199.3 272.035C218.771 270.136 248.07 256.475 260.007 240.518L261.506 241.435C257.118 251.088 231.583 264.675 221.664 268.37C215.153 270.794 196.932 274.057 193.593 279.617C186.347 280.323 176.048 277.913 169.001 276.598C168.617 275.288 169.571 274.059 169.047 271.809C175.408 270.712 178.859 269.439 184.86 267.04Z" fill="#4F312A"/>
<path d="M196.734 221.52C198.866 223.354 200.845 224.886 203.547 225.832C201.145 227.332 193.576 231.468 191.084 231.71C192.946 229.586 194.55 229.488 193.897 226.516C195.291 224.639 195.725 223.655 196.734 221.52Z" fill="#5A342B"/>
<path d="M271.345 227.119C272.386 225.704 273.322 224.077 274.935 223.486L275.316 223.902C274.971 225.534 273.711 226.785 272.63 228.086L271.345 227.119Z" fill="#4F312A"/>
<path d="M143.306 171.209C144.289 170.067 144.898 169.049 146.3 168.729C151.586 169.767 158.767 188.785 160.87 194.037C168.092 196.781 170.577 199.745 175.923 205.174C177.376 208.572 179.091 210.83 180.653 213.979C182.489 214.642 185.624 215.514 187.126 216.136C192.348 215.631 194.065 217.133 196.734 221.52C195.725 223.655 195.291 224.639 193.897 226.516C194.55 229.488 192.946 229.586 191.084 231.71C189.758 232.33 187.796 233.605 186.452 234.414C183.93 235.931 177.436 237.137 176.54 239.924C178.159 249.484 179.979 258.492 184.86 267.04C178.859 269.439 175.408 270.712 169.047 271.809C169.571 274.059 168.617 275.288 169.001 276.598L168.396 276.545C167.283 280.436 168.126 286.282 168.577 290.336C170.541 293.03 172.933 295.458 175.218 297.898C175.359 299.873 175.529 301.827 175.523 303.808L174.991 304.128C168.894 306.137 165.809 306.813 159.259 306.344L156.597 306.303L144.076 306.331L141.642 306.28C129.266 306.506 111.855 307.407 100.369 304.23C97.2905 302.287 95.1681 300.8 92.2722 298.589C85.5691 298.401 79.8339 298.179 73.6497 295.228C57.6684 288.148 51.3389 270.558 56.3422 254.299C61.702 236.877 65.8524 232.774 58.874 214.299C73.495 215.087 86.2144 222.152 90.7856 236.651C96.0737 253.424 86.8992 266.162 87.2444 283.273C88.4651 280.297 89.8536 275.723 91.0119 272.548C95.4454 260.389 101.673 255.328 111.351 247.283C111.955 244.52 101.76 239.883 101.398 235.71C101.015 231.32 107.486 223.071 109.872 219.722C105.759 210.481 104.959 187.762 108.885 178.228C110.946 173.225 124.431 185.478 126.725 187.3C128.738 189.467 133.204 192.987 135.652 194.712C138.922 184.586 138.011 182.448 143.306 171.209Z" fill="#E85B33"/>
<path d="M161.114 272.42C158.503 271.755 154.807 272.507 152.088 269.604C150.668 268.087 153.618 267.599 153.909 265.381C151.958 264.038 150.326 265.941 147.872 264.286C146.836 261.079 150.153 260.721 150.411 258.211C148.643 257.734 147.904 257.625 146.378 256.522C145.155 252.39 155.652 249.819 156.825 247.102C155.037 245.868 153.93 246.099 153.354 244.688C156.629 238.356 170.567 239.129 176.54 239.924C178.159 249.484 179.979 258.492 184.86 267.04C178.859 269.439 175.408 270.712 169.047 271.809C166.439 272.007 163.7 272.167 161.114 272.42Z" fill="#FEC991"/>
<path d="M133.662 296.598C133.26 296.311 132.319 295.605 132.511 295.069C135.915 285.617 134.756 278.382 125.304 273.577C121.561 271.675 117.988 273.051 115.315 271.789L115.473 270.575C117.505 268.787 121.971 269.848 124.38 270.452C137.403 273.726 138.607 283.862 135.937 294.638L133.662 296.598Z" fill="url(#paint0_linear_17836_21801)"/>
<path d="M187.126 216.136C192.348 215.631 194.065 217.133 196.734 221.52C195.725 223.655 195.291 224.639 193.897 226.516C185.871 230.121 181.208 223.655 187.126 216.136Z" fill="#4F312A"/>
<path d="M151.319 294.055C151.249 289.77 150.373 278.603 151.881 275.363L152.592 275.143C155.024 277.302 154.479 289.423 154.194 292.697C157.735 297.155 160.833 300.284 159.259 306.344L156.597 306.303C157.523 300.221 155.516 298.29 151.319 294.055Z" fill="url(#paint1_linear_17836_21801)"/>
<path d="M135.937 294.638C142.825 296.471 144.923 299.13 144.076 306.331L141.642 306.28C142.75 299.487 139.41 298.173 133.662 296.598L135.937 294.638Z" fill="#46291D"/>
<path d="M161.114 272.42C163.7 272.167 166.439 272.007 169.047 271.809C169.571 274.059 168.617 275.288 169.001 276.598L168.396 276.545L167.907 276.07C163.955 275.218 163.379 275.625 161.114 272.42Z" fill="#E85B33"/>
<path d="M170.186 212.733C175.965 214.369 173.959 224.132 163.668 221.424C163.047 220.695 162.359 219.587 161.814 218.769C161.766 217.403 161.54 217.582 162.206 216.824C165.319 217.712 166.113 219.824 169.175 218.038C170.245 216.517 170.098 214.642 170.186 212.733Z" fill="#4F312A"/>
<path d="M152.401 227.029C148.541 229.657 144.11 228.048 142.919 223.719C143.176 222.103 142.904 222.711 144.002 221.426C146.921 222.046 145.397 225.971 150.945 224.837L152.401 227.029Z" fill="#4F312A"/>
<path d="M150.945 224.837C151.019 223.03 150.834 221.021 152.015 219.739L153.001 219.393C155.965 221.616 154.626 224.833 152.401 227.029L150.945 224.837Z" fill="#4F312A"/>
<path d="M305.405 277.521C308.388 276.351 311.533 275.218 314.721 274.749C319.37 277.651 324.369 284.58 326.307 289.665C326.511 290.198 326.556 294.319 326.569 294.342C328.878 298.213 333.817 301.495 336.311 305.087C340.458 311.042 347.225 323.299 342.241 330.217C333.731 342.034 316.651 325.892 306.205 324.533C299.387 323.644 293.875 325.705 287.373 326.964C283.945 327.627 274.903 330.271 272.194 328.5L271.558 327.529C273.881 320.529 269.394 299.127 267.072 291.775C269.956 290.415 281.687 289.985 286.755 288.04C292.188 285.956 301.549 278.277 305.405 277.521Z" fill="#EDA245"/>
<path d="M97.2094 75.1087C101.19 75.0499 112.242 73.6953 114.113 77.4643C113.768 80.5635 105.386 88.5885 102.673 91.5053C105.563 91.5237 114.026 90.8832 114.609 94.3112C113.921 95.4915 113.617 95.5388 112.366 96.2353C108.691 96.1492 97.8188 96.9683 95.9171 95.2344C94.7832 90.175 105.78 83.6909 105.942 79.9338C103.424 78.3335 97.898 81.2249 95.9472 77.9282C96.1057 76.4856 96.3283 76.3415 97.2094 75.1087Z" fill="#46291D"/>
<path d="M82.3091 110.858C85.9408 110.791 94.3436 109.581 96.2604 112.939C96.0472 115.988 89.6781 122.009 87.2972 124.602C89.0951 124.577 90.8931 124.574 92.691 124.587C94.7832 124.613 95.3303 124.591 96.6585 125.951C96.6 127.515 96.3962 127.37 95.5114 128.791C91.8835 128.629 83.5844 129.878 81.679 126.643C81.8563 124.035 87.9877 118.018 90.1988 115.027C87.0652 115.076 83.2769 115.675 81.1036 113.7C81.0753 112.01 81.113 112.481 82.3091 110.858Z" fill="#46291D"/>
<path d="M105.203 148.927C104.056 150.632 103.326 151.073 103.28 152.856C104.799 154.205 105.322 153.911 107.65 154.36L108.052 155.012C107.169 158.931 97.2018 159.468 96.2132 154.49C96.6773 152.584 98.9676 150.628 100.477 149.398C102.475 149.345 103.22 149.33 105.203 148.927Z" fill="#46291D"/>
<path d="M101.745 146.935C99.6714 147.244 95.7699 147.64 96.051 144.457C96.9339 143.752 97.2396 143.837 98.43 143.742C100.758 143.731 105.518 143.409 107.299 144.427C108.048 146.537 106.65 147.425 105.203 148.927C103.22 149.33 102.475 149.345 100.477 149.398L101.745 146.935Z" fill="#46291D"/>
<path d="M101.745 146.935C99.6714 147.244 95.7699 147.64 96.051 144.457C96.9339 143.752 97.2396 143.837 98.43 143.742C100.079 144.198 101.147 144.317 102.324 145.531L102.264 146.479L101.745 146.935Z" fill="#46291D"/>
<defs>
<linearGradient id="paint0_linear_17836_21801" x1="170.969" y1="198.569" x2="279.494" y2="118.614" gradientUnits="userSpaceOnUse">
<stop stop-color="#3A231E"/>
<stop offset="1" stop-color="#643723"/>
</linearGradient>
<linearGradient id="paint1_linear_17836_21801" x1="318.511" y1="185.477" x2="75.4652" y2="156.247" gradientUnits="userSpaceOnUse">
<stop stop-color="#42261A"/>
<stop offset="1" stop-color="#623923"/>
</linearGradient>
</defs>
</svg>
