<svg width="400" height="400" viewBox="0 0 400 400" fill="none" xmlns="http://www.w3.org/2000/svg">
<path d="M104.786 127.043L104.604 126.703C99.7435 117.378 98.9942 106.764 102.223 96.7506C113.341 62.2784 143.262 68.2141 145.961 64.8223C147.504 62.8849 148.676 59.9842 149.978 57.8189C154.446 50.3893 160.707 44.239 168.51 40.3649C182.649 33.2472 199.055 32.0462 214.086 37.0289C225.451 40.9005 235.708 49.4361 241.089 60.2035C249.009 56.5534 255.585 55.7204 264.358 56.3769C283.94 57.8417 300.631 78.5859 298.341 98.1436C303.831 101.176 308.476 103.118 312.361 108.213C321.887 120.715 321.163 139.371 307.839 148.894C303.992 148.675 300.073 147.859 297.426 150.733C291.212 157.482 290.451 163.563 280.014 166.135C277.178 166.835 270.903 165.903 268.961 166.393C268.305 168.351 267.208 168.982 266.183 170.716C262.808 176.433 258.622 181.909 258.141 188.695C241.894 204.353 224.382 219.892 205.213 231.878C201.87 230.71 199.421 228.82 196.784 226.557C193.481 221.143 191.356 219.29 184.895 219.913C183.037 219.146 179.157 218.069 176.886 217.25C174.953 213.364 172.831 210.578 171.034 206.385C164.418 199.686 161.344 196.028 152.408 192.642C149.805 186.16 140.921 162.691 134.38 161.41C132.646 161.805 131.892 163.061 130.676 164.47C124.123 178.34 125.251 180.979 121.205 193.474C118.175 191.346 112.65 187.002 110.159 184.328C110.383 181.626 110.951 178.774 111.427 176.088C95.0982 166.6 88.7699 151.417 98.7655 133.575C100.271 130.889 102.484 129.066 104.786 127.043Z" fill="#FEECCE"/>
<path d="M163.155 113.32C180.798 123.534 190.427 117.462 205.117 105.853C208.103 109.732 211.663 113.134 215.675 115.943C238.622 131.815 243.106 109.441 256.036 107.434C259.395 106.913 262.532 108.004 265.219 109.995C269.892 113.46 273.373 118.615 274.157 124.406C274.832 129.378 273.604 134.527 270.464 138.487C267.203 142.601 262.845 144.901 257.696 145.566C257.576 148.575 257.154 151.538 258.377 154.214C268.858 154.061 264.25 162.054 268.961 166.393C268.305 168.351 267.208 168.982 266.183 170.716C262.808 176.433 258.622 181.909 258.141 188.695C241.894 204.353 224.382 219.892 205.213 231.878C201.87 230.71 199.421 228.82 196.784 226.557C193.481 221.143 191.356 219.29 184.895 219.913C183.037 219.146 179.157 218.069 176.886 217.25C174.953 213.364 172.831 210.578 171.034 206.385C164.418 199.686 161.344 196.028 152.408 192.642C149.805 186.16 140.921 162.691 134.38 161.41C132.646 161.805 131.892 163.061 130.676 164.47C130.153 163.67 129.551 162.545 129.028 161.81C125.507 156.849 134.455 149.501 136.729 145.082C138.117 142.382 138.622 140.475 139.49 137.373C153.34 136.282 161.577 126.666 163.155 113.32Z" fill="#FEC991"/>
<path d="M258.377 154.214C268.858 154.061 264.25 162.054 268.961 166.393C268.305 168.351 267.208 168.982 266.183 170.716C262.808 176.433 258.622 181.909 258.141 188.695C241.894 204.353 224.382 219.892 205.213 231.878C201.87 230.71 199.421 228.82 196.784 226.557C193.481 221.143 191.356 219.29 184.895 219.913C183.037 219.146 179.157 218.069 176.886 217.25C174.953 213.364 172.831 210.578 171.034 206.385C204.58 211.918 227.667 200.344 247.277 172.4C251.353 166.593 254.171 159.826 258.377 154.214Z" fill="#17676B"/>
<path d="M205.402 136.217L208.427 137.208C215.365 144.447 205.6 161.763 192.827 149.573C191.51 147.254 190.661 146.208 192.019 143.636C194.522 143.426 208.817 161.489 205.402 136.217Z" fill="#080403"/>
<path d="M166.606 154.308C172.143 157.342 172.918 163.77 168.597 168.198C166.762 170.1 164.22 171.165 161.57 171.142C157.719 171.128 155.802 169.107 153.358 166.582C151.99 163.631 151.848 161.928 154.255 159.621C156.552 160.735 158.755 168.972 163.382 166.979C170.051 164.11 164.519 158.582 166.606 154.308Z" fill="#080403"/>
<path d="M203.922 172.661C206.256 173.321 206.466 173.9 207.108 176.014C206.791 178.353 205.101 180.879 203.331 182.365C196.308 188.265 194.372 188.96 186.067 188.811C183.653 188.218 183.343 187.686 182.082 185.549C185.749 179.665 194.94 191.774 203.922 172.661Z" fill="#080403"/>
<path d="M182.288 161.735C183.889 162.052 183.954 162.052 185.233 163.014C185.525 164.849 184.139 166.389 183.259 168.779C183.613 170.805 183.245 170.121 184.526 171.514C187.325 171.621 187.134 169.984 189.834 169.903C190.805 171.402 190.474 171.142 190.472 173.277C185.868 176.233 181.351 176.516 179.589 170.049C178.66 166.635 180.46 164.593 182.288 161.735Z" fill="#080403"/>
<path d="M268.961 166.393C270.903 165.903 277.178 166.835 280.014 166.135C290.451 163.563 291.212 157.482 297.426 150.733C300.073 147.859 303.992 148.675 307.839 148.894C310.694 149.701 314.98 149.426 317.585 150.861C336.063 161.026 346.878 185.221 355.371 203.441C360.782 216.148 363.641 224.425 365.868 237.885C366.69 246.045 365.31 253.498 359.873 259.887C353.522 267.347 341.348 273.863 331.432 274.542C331.698 280.861 332.504 289.605 331.245 295.665C326.474 296.597 314.891 306.074 308.168 308.646C301.898 311.046 287.383 311.576 283.814 313.255C286.688 322.327 292.239 348.738 289.365 357.377C282.717 356.843 271.778 360.001 264.234 360.459C237.518 362.087 196.52 367.428 179.671 341.285C176.9 336.985 177.53 330.506 175.028 327.959C172.7 327.264 173.156 327.541 170.539 328.104C170.546 325.66 170.336 323.248 170.161 320.811C167.334 317.799 164.374 314.804 161.944 311.478C161.386 306.476 160.343 299.262 161.72 294.46L162.469 294.525C161.993 292.909 163.174 291.393 162.525 288.616C170.396 287.263 174.666 285.691 182.091 282.73C176.053 272.182 173.8 261.066 171.797 249.268C172.906 245.829 180.941 244.34 184.062 242.468C185.724 241.471 188.151 239.896 189.792 239.131C192.096 236.51 194.081 236.389 193.273 232.722C194.998 230.406 195.535 229.192 196.784 226.557C199.421 228.82 201.87 230.71 205.213 231.878C224.382 219.892 241.894 204.353 258.141 188.695C258.622 181.909 262.808 176.433 266.183 170.716C267.208 168.982 268.305 168.351 268.961 166.393Z" fill="#E85B33"/>
<path d="M162.469 294.525C171.188 296.149 183.931 299.123 192.897 298.251C210.227 298.4 222.524 299.788 238.759 306.769C245.982 309.874 253.79 313.892 261.015 316.669C268.202 315.662 276.802 314.674 283.814 313.255C286.688 322.327 292.239 348.738 289.365 357.377C282.717 356.843 271.778 360.001 264.234 360.459C237.518 362.087 196.52 367.428 179.671 341.285C176.9 336.985 177.53 330.506 175.028 327.959C172.7 327.264 173.156 327.541 170.539 328.104C170.546 325.66 170.336 323.248 170.161 320.811C167.334 317.799 164.374 314.804 161.944 311.478C161.386 306.476 160.343 299.262 161.72 294.46L162.469 294.525Z" fill="#5A342B"/>
<path d="M268.961 166.393C270.903 165.903 277.178 166.835 280.014 166.135C290.451 163.563 291.212 157.482 297.426 150.733C300.073 147.859 303.992 148.675 307.839 148.894C310.694 149.701 314.98 149.426 317.585 150.861C336.063 161.026 346.878 185.221 355.371 203.441C360.782 216.148 363.641 224.425 365.868 237.885C366.69 246.045 365.31 253.498 359.873 259.887C353.522 267.347 341.348 273.863 331.432 274.542C330.066 271.517 328.073 265.584 327.662 262.328C332.648 258.298 328.419 244.533 321.212 242.673C321.364 242.475 321.623 242.168 321.6 241.971C319.896 227.485 311.072 207.178 303.609 195.055C299.573 188.493 290.642 174.972 284.526 173.579C277.29 171.933 264.712 184.602 258.69 188.358L258.141 188.695C258.622 181.909 262.808 176.433 266.183 170.716C267.208 168.982 268.305 168.351 268.961 166.393Z" fill="#A83622"/>
<path d="M276.928 251.133C289.687 256.915 297.953 260.221 312.284 261.063C314.942 261.219 325.774 261.77 327.662 262.328C328.073 265.584 330.066 271.517 331.432 274.542C331.698 280.861 332.504 289.605 331.245 295.665C326.474 296.597 314.891 306.074 308.168 308.646C301.898 311.046 287.383 311.576 283.814 313.255C276.802 314.674 268.202 315.662 261.015 316.669C253.79 313.892 245.982 309.874 238.759 306.769C222.524 299.788 210.227 298.4 192.897 298.251C197.029 291.391 219.574 287.363 227.629 284.372C239.903 279.812 271.498 263.045 276.928 251.133Z" fill="#E85B33"/>
<path d="M289.101 233.466L290.691 234.659C295.787 239.201 314.275 242.099 321.212 242.673C328.419 244.533 332.648 258.298 327.662 262.328C325.774 261.77 314.942 261.219 312.284 261.063C297.953 260.221 289.687 256.915 276.928 251.133L275.072 250.001C276.788 247.296 286.847 236.001 289.101 233.466Z" fill="#5A342B"/>
<path d="M182.091 282.73C183.095 284.591 184.195 288.167 185.628 289.032C188.688 290.884 196.744 289.209 199.958 288.895C224.051 286.551 260.303 269.693 275.072 250.001L276.928 251.133C271.498 263.045 239.903 279.812 227.629 284.372C219.574 287.363 197.029 291.391 192.897 298.251C183.931 299.123 171.188 296.149 162.469 294.525C161.993 292.909 163.174 291.393 162.525 288.616C170.396 287.263 174.666 285.691 182.091 282.73Z" fill="#4F312A"/>
<path d="M196.784 226.557C199.421 228.82 201.87 230.71 205.213 231.878C202.241 233.729 192.876 238.834 189.792 239.131C192.096 236.51 194.081 236.389 193.273 232.722C194.998 230.406 195.535 229.192 196.784 226.557Z" fill="#5A342B"/>
<path d="M289.101 233.466C290.39 231.72 291.548 229.713 293.544 228.983L294.015 229.497C293.588 231.51 292.029 233.055 290.691 234.659L289.101 233.466Z" fill="#4F312A"/>
<path d="M130.676 164.47C131.892 163.061 132.646 161.805 134.38 161.41C140.921 162.691 149.805 186.16 152.408 192.642C161.344 196.028 164.418 199.686 171.034 206.385C172.831 210.578 174.953 213.364 176.886 217.25C179.157 218.069 183.037 219.146 184.895 219.913C191.356 219.29 193.481 221.143 196.784 226.557C195.535 229.192 194.998 230.406 193.273 232.722C194.081 236.389 192.096 236.51 189.792 239.131C188.151 239.896 185.724 241.471 184.062 242.468C180.941 244.34 172.906 245.829 171.797 249.268C173.8 261.066 176.053 272.182 182.091 282.73C174.666 285.691 170.396 287.263 162.525 288.616C163.174 291.393 161.993 292.909 162.469 294.525L161.72 294.46C160.343 299.262 161.386 306.476 161.944 311.478C164.374 314.804 167.334 317.799 170.161 320.811C170.336 323.248 170.546 325.66 170.539 328.104L169.881 328.499C162.336 330.978 158.519 331.813 150.415 331.234L147.121 331.183L131.628 331.218L128.617 331.155C113.304 331.434 91.7602 332.545 77.5488 328.625C73.7392 326.227 71.1131 324.392 67.5299 321.664C59.2361 321.432 52.1397 321.157 44.4878 317.516C24.7138 308.779 16.8821 287.072 23.0727 267.007C29.7046 245.508 34.84 240.445 26.2054 217.646C44.2964 218.618 60.0344 227.336 65.6905 245.229C72.2336 265.928 60.8818 281.647 61.309 302.762C62.8193 299.09 64.5373 293.446 65.9706 289.528C71.4562 274.523 79.1619 268.277 91.1369 258.349C91.8839 254.94 79.2692 249.217 78.821 244.068C78.3472 238.65 86.3539 228.471 89.3068 224.339C84.218 212.934 83.2282 184.898 88.086 173.133C90.635 166.958 107.321 182.079 110.159 184.328C112.65 187.002 118.175 191.346 121.205 193.474C125.251 180.979 124.123 178.34 130.676 164.47Z" fill="#E85B33"/>
<path d="M152.709 289.37C149.479 288.549 144.906 289.477 141.542 285.895C139.784 284.023 143.435 283.421 143.795 280.684C141.381 279.026 139.362 281.375 136.325 279.333C135.043 275.375 139.147 274.933 139.467 271.835C137.279 271.247 136.364 271.112 134.476 269.751C132.963 264.652 145.951 261.48 147.403 258.126C145.19 256.603 143.82 256.889 143.108 255.147C147.161 247.333 164.407 248.287 171.797 249.268C173.8 261.066 176.053 272.182 182.091 282.73C174.666 285.691 170.396 287.263 162.525 288.616C159.299 288.86 155.91 289.058 152.709 289.37Z" fill="#FEC991"/>
<path d="M118.743 319.206C118.245 318.853 117.081 317.981 117.319 317.32C121.53 305.655 120.097 296.728 108.402 290.798C103.77 288.451 99.3491 290.149 96.0413 288.591L96.2374 287.093C98.7515 284.886 104.277 286.195 107.258 286.942C123.372 290.981 124.861 303.49 121.558 316.788L118.743 319.206Z" fill="url(#paint0_linear_22559_34525)"/>
<path d="M184.895 219.913C191.356 219.29 193.481 221.143 196.784 226.557C195.535 229.192 194.998 230.406 193.273 232.722C183.343 237.171 177.572 229.192 184.895 219.913Z" fill="#4F312A"/>
<path d="M140.59 316.069C140.503 310.781 139.42 297 141.285 293.002L142.165 292.73C145.174 295.395 144.5 310.353 144.147 314.392C148.529 319.895 152.362 323.755 150.415 331.234L147.121 331.183C148.267 323.678 145.783 321.295 140.59 316.069Z" fill="url(#paint1_linear_22559_34525)"/>
<path d="M121.558 316.788C130.08 319.05 132.676 322.332 131.628 331.218L128.617 331.155C129.987 322.771 125.855 321.15 118.743 319.206L121.558 316.788Z" fill="#46291D"/>
<path d="M152.709 289.37C155.91 289.058 159.299 288.86 162.525 288.616C163.174 291.393 161.993 292.909 162.469 294.525L161.72 294.46L161.115 293.874C156.225 292.823 155.513 293.325 152.709 289.37Z" fill="#E85B33"/>
<path d="M163.935 215.713C171.085 217.732 168.604 229.78 155.87 226.438C155.102 225.538 154.25 224.171 153.575 223.162C153.517 221.476 153.237 221.697 154.061 220.762C157.913 221.857 158.895 224.464 162.684 222.259C164.007 220.383 163.825 218.069 163.935 215.713Z" fill="#4F312A"/>
<path d="M141.929 233.355C137.153 236.599 131.67 234.613 130.197 229.271C130.515 227.276 130.178 228.027 131.537 226.441C135.148 227.206 133.262 232.05 140.127 230.65L141.929 233.355Z" fill="#4F312A"/>
<path d="M140.127 230.65C140.218 228.42 139.99 225.941 141.451 224.359L142.672 223.932C146.339 226.676 144.682 230.645 141.929 233.355L140.127 230.65Z" fill="#4F312A"/>
<path d="M331.245 295.665C334.936 294.221 338.827 292.823 342.772 292.244C348.524 295.825 354.71 304.376 357.107 310.651C357.359 311.309 357.415 316.395 357.432 316.423C360.289 321.199 366.4 325.25 369.486 329.683C374.617 337.031 382.99 352.157 376.823 360.694C366.293 375.277 345.16 355.357 332.235 353.68C323.799 352.582 316.978 355.126 308.934 356.68C304.692 357.498 293.504 360.761 290.152 358.575L289.365 357.377C292.239 348.738 286.688 322.327 283.814 313.255C287.383 311.576 301.898 311.046 308.168 308.646C314.891 306.074 326.474 296.597 331.245 295.665Z" fill="#EDA245"/>
<path d="M73.6389 45.878C78.5643 45.8055 92.2387 44.1339 94.5544 48.785C94.1272 52.6095 83.7558 62.5128 80.399 66.1122C83.9752 66.135 94.447 65.3446 95.1683 69.575C94.3163 71.0314 93.9404 71.0898 92.3928 71.9493C87.8455 71.8431 74.3928 72.854 72.0398 70.7142C70.6369 64.4706 84.2437 56.469 84.4444 51.8325C81.3281 49.8577 74.4909 53.4258 72.0772 49.3575C72.2733 47.5773 72.5487 47.3994 73.6389 45.878Z" fill="#46291D"/>
<path d="M55.2023 89.995C59.6959 89.9112 70.093 88.4183 72.4646 92.5624C72.2009 96.3251 64.3202 103.755 61.3743 106.955C63.5989 106.925 65.8235 106.92 68.0481 106.936C70.6369 106.969 71.3138 106.941 72.9572 108.62C72.8848 110.55 72.6327 110.371 71.5379 112.125C67.049 111.925 56.7803 113.467 54.4227 109.474C54.6421 106.255 62.2286 98.8297 64.9645 95.139C61.0871 95.1995 56.3998 95.939 53.7107 93.5019C53.6757 91.4159 53.7224 91.9972 55.2023 89.995Z" fill="#46291D"/>
<path d="M83.5293 136.973C82.1101 139.078 81.2067 139.622 81.1507 141.822C83.0298 143.487 83.6764 143.124 86.5569 143.678L87.0542 144.482C85.9617 149.319 73.6295 149.982 72.4063 143.838C72.9805 141.487 75.8144 139.073 77.6819 137.554C80.1539 137.489 81.076 137.471 83.5293 136.973Z" fill="#46291D"/>
<path d="M79.2506 134.515C76.6851 134.896 71.8577 135.385 72.2056 131.457C73.298 130.587 73.6762 130.692 75.1491 130.575C78.0297 130.562 83.9192 130.164 86.1228 131.42C87.0495 134.024 85.3198 135.12 83.5293 136.973C81.076 137.471 80.1539 137.489 77.6819 137.554L79.2506 134.515Z" fill="#46291D"/>
<path d="M79.2506 134.515C76.6851 134.896 71.8577 135.385 72.2056 131.457C73.298 130.587 73.6762 130.692 75.1491 130.575C77.1893 131.138 78.5106 131.285 79.9672 132.782L79.8925 133.952L79.2506 134.515Z" fill="#46291D"/>
<defs>
<linearGradient id="paint0_linear_22559_34525" x1="164.903" y1="198.234" x2="298.934" y2="99.2267" gradientUnits="userSpaceOnUse">
<stop stop-color="#3A231E"/>
<stop offset="1" stop-color="#643723"/>
</linearGradient>
<linearGradient id="paint1_linear_22559_34525" x1="347.461" y1="182.078" x2="46.757" y2="145.818" gradientUnits="userSpaceOnUse">
<stop stop-color="#42261A"/>
<stop offset="1" stop-color="#623923"/>
</linearGradient>
</defs>
</svg>
