<svg width="400" height="400" viewBox="0 0 400 400" fill="none" xmlns="http://www.w3.org/2000/svg">
<g filter="url(#filter0_dd_18529_86874)">
<path d="M193.86 284.585C194.298 283.491 195.537 282.96 196.631 283.398C197.724 283.835 198.256 285.074 197.818 286.168C196.101 290.46 189.535 298.174 176.643 298.174C164.804 298.174 158.226 292.866 155.938 289.176L155.538 288.463L155.384 288.059C155.127 287.101 155.57 286.062 156.492 285.601C157.413 285.141 158.508 285.41 159.121 286.189L159.354 286.555L159.592 286.972C161.016 289.219 166.086 293.908 176.643 293.908C187.639 293.908 192.733 287.403 193.86 284.585Z" fill="#614737"/>
<path d="M171.596 259.935C172.69 259.498 173.929 260.029 174.367 261.122C174.804 262.216 174.273 263.455 173.179 263.893C172.886 264.01 172.35 264.43 171.809 265.322C171.294 266.17 170.903 267.242 170.763 268.321C170.623 269.406 170.752 270.361 171.101 271.079C171.422 271.74 171.988 272.331 173.055 272.687C174.172 273.059 174.781 274.269 174.408 275.386C174.083 276.364 173.115 276.951 172.13 276.832L171.709 276.736L170.938 276.44C169.214 275.68 167.993 274.446 167.264 272.945C166.458 271.286 166.318 269.441 166.535 267.771C166.752 266.096 167.344 264.456 168.164 263.105C168.958 261.798 170.112 260.529 171.596 259.935Z" fill="#614737"/>
<path d="M155.312 253.383C155.312 260.451 151.492 266.181 146.78 266.181C142.068 266.181 138.248 260.451 138.248 253.383C138.248 246.315 142.068 240.585 146.78 240.585C151.492 240.585 155.312 246.315 155.312 253.383Z" fill="#614737"/>
<path d="M219.3 253.383C219.3 260.451 215.481 266.181 210.769 266.181C206.057 266.181 202.237 260.451 202.237 253.383C202.237 246.315 206.057 240.585 210.769 240.585C215.481 240.585 219.3 246.315 219.3 253.383Z" fill="#614737"/>
<path fill-rule="evenodd" clip-rule="evenodd" d="M176.642 191.526C161.711 214.988 133.983 217.121 121.185 208.589C114.106 215.668 109.425 227.061 106.459 238.451C103.168 251.085 101.988 263.714 101.988 270.445C101.988 275.076 103.106 281.074 105.61 287.508C107.298 291.845 109.616 296.38 112.647 300.829C123.757 317.141 144.444 332.3 178.774 332.3C214.337 332.3 236.364 321.816 249.162 309.951C258.47 301.322 262.895 291.962 264.092 285.375C291.821 296.04 304.618 261.913 291.821 242.716C281.583 227.359 269.069 234.896 264.092 240.584C260.537 240.584 251.295 234.185 242.763 208.589C206.503 217.121 189.439 208.589 176.642 191.526ZM196.631 283.398C195.537 282.96 194.298 283.491 193.86 284.585C192.733 287.403 187.639 293.908 176.643 293.908C166.086 293.908 161.016 289.219 159.592 286.972L159.354 286.555L159.121 286.189C158.508 285.41 157.413 285.141 156.492 285.601C155.57 286.062 155.127 287.101 155.384 288.059L155.538 288.463L155.938 289.176C158.226 292.866 164.804 298.174 176.643 298.174C189.535 298.174 196.101 290.46 197.818 286.168C198.256 285.074 197.724 283.835 196.631 283.398ZM174.367 261.122C173.929 260.029 172.69 259.498 171.596 259.935C170.112 260.529 168.958 261.798 168.164 263.105C167.344 264.456 166.752 266.096 166.535 267.771C166.318 269.441 166.458 271.286 167.264 272.945C167.993 274.446 169.214 275.68 170.938 276.44L171.709 276.736L172.13 276.832C173.115 276.951 174.083 276.364 174.408 275.386C174.781 274.269 174.172 273.059 173.055 272.687C171.988 272.331 171.422 271.74 171.101 271.079C170.752 270.361 170.623 269.406 170.763 268.321C170.903 267.242 171.294 266.17 171.809 265.322C172.35 264.43 172.886 264.01 173.179 263.893C174.273 263.455 174.804 262.216 174.367 261.122ZM146.78 266.181C151.492 266.181 155.312 260.451 155.312 253.383C155.312 246.315 151.492 240.585 146.78 240.585C142.068 240.585 138.248 246.315 138.248 253.383C138.248 260.451 142.068 266.181 146.78 266.181ZM210.769 266.181C215.481 266.181 219.3 260.451 219.3 253.383C219.3 246.315 215.481 240.585 210.769 240.585C206.057 240.585 202.237 246.315 202.237 253.383C202.237 260.451 206.057 266.181 210.769 266.181Z" fill="#FED7A8"/>
<path d="M101.988 270.445C101.988 263.714 103.168 251.085 106.459 238.451C93.4566 223.52 74.26 242.716 76.393 261.913C78.5259 281.11 90.036 287.508 105.61 287.508C103.106 281.074 101.988 275.076 101.988 270.445Z" fill="#FED7A8"/>
<path d="M121.185 208.589C133.983 217.121 161.711 214.988 176.642 191.526C189.439 208.589 206.503 217.121 242.763 208.589C251.295 234.185 260.537 240.584 264.092 240.584C269.069 234.896 281.583 227.359 291.821 242.716C304.618 261.913 291.821 296.04 264.092 285.375C262.895 291.962 258.47 301.322 249.162 309.951C311.017 338.792 347.277 289.643 338.745 264.048C381.404 236.319 360.075 178.73 325.948 168.065C317.416 133.938 289.688 119.007 251.295 121.14C247.029 104.078 219.3 69.9478 178.774 67.8148C138.248 65.6819 110.523 93.4102 101.988 138.202C63.5953 138.202 42.2658 185.127 57.1995 217.121C49.3787 219.254 34.5903 230.772 38.003 259.78C42.1793 295.279 86.7599 310.224 112.647 300.829C109.616 296.38 107.298 291.845 105.61 287.508C90.036 287.508 78.5259 281.11 76.393 261.913C74.26 242.716 93.4566 223.52 106.459 238.451C109.425 227.061 114.106 215.668 121.185 208.589Z" fill="#FDF2D3"/>
</g>
<defs>
<filter id="filter0_dd_18529_86874" x="-1.33333" y="-1" width="402.667" height="402.667" filterUnits="userSpaceOnUse" color-interpolation-filters="sRGB">
<feFlood flood-opacity="0" result="BackgroundImageFix"/>
<feColorMatrix in="SourceAlpha" type="matrix" values="0 0 0 0 0 0 0 0 0 0 0 0 0 0 0 0 0 0 127 0" result="hardAlpha"/>
<feOffset dy="0.166667"/>
<feGaussianBlur stdDeviation="0.166667"/>
<feComposite in2="hardAlpha" operator="out"/>
<feColorMatrix type="matrix" values="0 0 0 0 0.0392157 0 0 0 0 0.0431373 0 0 0 0 0.0392157 0 0 0 0.3 0"/>
<feBlend mode="normal" in2="BackgroundImageFix" result="effect1_dropShadow_18529_86874"/>
<feColorMatrix in="SourceAlpha" type="matrix" values="0 0 0 0 0 0 0 0 0 0 0 0 0 0 0 0 0 0 127 0" result="hardAlpha"/>
<feMorphology radius="0.333333" operator="dilate" in="SourceAlpha" result="effect2_dropShadow_18529_86874"/>
<feOffset dy="0.333333"/>
<feGaussianBlur stdDeviation="0.5"/>
<feComposite in2="hardAlpha" operator="out"/>
<feColorMatrix type="matrix" values="0 0 0 0 0.0392157 0 0 0 0 0.0431373 0 0 0 0 0.0392157 0 0 0 0.15 0"/>
<feBlend mode="normal" in2="effect1_dropShadow_18529_86874" result="effect2_dropShadow_18529_86874"/>
<feBlend mode="normal" in="SourceGraphic" in2="effect2_dropShadow_18529_86874" result="shape"/>
</filter>
</defs>
</svg>
